<svg width="110" height="25" viewBox="0 0 110 25" fill="none" xmlns="http://www.w3.org/2000/svg">
<rect width="110" height="25" rx="12.2488" fill="#619D64"/>
<g clip-path="url(#clip0_50_10015)">
<path d="M30.2873 18.4216C30.2699 18.2415 30.2449 18.0666 30.2174 17.9016C30.1302 17.3641 29.993 16.8367 29.8109 16.3342C29.7436 16.1542 29.6712 15.9767 29.5964 15.8092C29.3544 15.2668 29.0576 14.7517 28.6885 14.2368C28.5637 14.0618 28.4315 13.8868 28.2943 13.7194C27.6309 12.8994 26.8626 12.182 26.0894 11.4995C25.8848 11.3221 25.6828 11.1446 25.4807 10.9696L25.4766 10.9664L25.4708 10.9616C25.4308 10.927 25.3924 10.893 25.3527 10.8585C25.1707 10.6997 24.9883 10.5425 24.8122 10.3846C24.2478 9.88613 23.7137 9.38753 23.229 8.85009H26.396C26.0626 9.22056 25.7051 9.57284 25.3296 9.91913C25.5244 10.0912 25.7227 10.2634 25.9232 10.4372L25.9336 10.4464C26.1572 10.6405 26.3831 10.8363 26.6079 11.0356C27.202 10.4915 27.7795 9.91797 28.293 9.28375C28.4307 9.11453 28.5638 8.94006 28.6907 8.76337C29.0583 8.24872 29.3546 7.73472 29.5954 7.1935C29.6709 7.02484 29.7436 6.84756 29.8098 6.66622C29.9937 6.16428 30.1314 5.63691 30.2185 5.10034C30.2461 4.93459 30.2692 4.75959 30.2882 4.58166C30.3251 4.23394 30.3441 3.87066 30.3441 3.50103H28.4999C28.4999 3.82453 28.4838 4.14216 28.451 4.44538C28.4485 4.46869 28.4446 4.48994 28.4419 4.513H21.1819C21.1793 4.48966 21.1754 4.46866 21.1731 4.44494C21.1382 4.14244 21.1232 3.825 21.1232 3.5H19.2798C19.2798 3.86997 19.2973 4.235 19.3347 4.57994C19.3547 4.75994 19.3771 4.93488 19.4046 5.09741C19.4918 5.63737 19.629 6.16484 19.8136 6.66728C19.8809 6.84728 19.9533 7.02475 20.0281 7.19225C20.2676 7.73472 20.5644 8.24969 20.9335 8.76466C21.0583 8.93962 21.193 9.11459 21.3277 9.28216C21.9911 10.1021 22.7619 10.8195 23.5352 11.4995C23.4834 11.5447 23.4327 11.5922 23.3813 11.6381C23.2589 11.7467 23.1365 11.855 23.0151 11.9661C22.4209 12.5096 21.8435 13.0831 21.33 13.7173C21.1923 13.8865 21.0591 14.0609 20.9323 14.2377C20.5647 14.7523 20.2684 15.2663 20.0275 15.8075C19.9521 15.9762 19.88 16.1535 19.8132 16.3348C19.6293 16.8368 19.4916 17.3641 19.4046 17.9007C19.3769 18.067 19.3538 18.242 19.3348 18.4194C19.2979 18.767 19.2789 19.1303 19.2789 19.5H21.1231C21.1231 19.1765 21.1393 18.8589 21.1721 18.5557C21.1746 18.5323 21.1785 18.5111 21.1811 18.488H28.443C28.4458 18.511 28.4489 18.5333 28.4515 18.5565C28.4839 18.859 28.4989 19.1764 28.4989 19.4989H30.3447C30.3447 19.1315 30.3247 18.7665 30.2873 18.4216ZM21.5771 6.21484C21.4344 5.82491 21.3252 5.41528 21.2502 4.99491H28.3721C28.2976 5.41391 28.1895 5.82453 28.0463 6.21447C28.0178 6.29187 27.9852 6.36516 27.9546 6.44059H21.6685C21.6379 6.36525 21.6054 6.29225 21.5771 6.21484ZM22.515 7.97222C22.2676 7.62631 22.0615 7.27987 21.8837 6.92247H27.7397C27.5623 7.27972 27.3553 7.62581 27.108 7.97203C27.0123 8.10547 26.9096 8.23772 26.805 8.36816H22.8169C22.7131 8.23822 22.6104 8.10566 22.515 7.97222ZM24.2934 13.0819C24.3034 13.0726 24.3141 13.0635 24.3242 13.0542C24.4839 12.9072 24.6462 12.7613 24.8115 12.6152C24.8118 12.615 24.8121 12.6147 24.8124 12.6145C25.3766 13.1147 25.9105 13.6136 26.3939 14.1509H23.2267C23.5602 13.7803 23.9178 13.4283 24.2934 13.0819ZM22.5149 15.0295C22.6106 14.8956 22.7134 14.7633 22.8181 14.6328H26.8048C26.9087 14.7629 27.0115 14.8956 27.107 15.0293C27.3543 15.375 27.5619 15.7213 27.739 16.0786H21.8833C22.0607 15.7216 22.2677 15.3753 22.5149 15.0295ZM21.2508 18.0061C21.3253 17.5871 21.4334 17.1765 21.5761 16.7865C21.6046 16.7091 21.6374 16.6358 21.6681 16.5604H27.9545C27.9852 16.6359 28.0178 16.7091 28.0474 16.7866C28.1901 17.1764 28.2972 17.5859 28.372 18.0061H21.2508Z" fill="white"/>
</g>
<path d="M37.6659 8.12858C37.8227 8.07632 38.2495 8.01971 38.9463 7.95873C39.6431 7.88905 40.2746 7.85421 40.8408 7.85421C41.4157 7.85421 41.8599 7.88034 42.1735 7.9326C42.1822 7.96744 42.1865 8.011 42.1865 8.06326C42.1865 8.10681 42.1604 8.21569 42.1081 8.38989C42.0646 8.5641 42.0297 8.67733 42.0036 8.72959C41.9339 8.79928 41.7379 8.85154 41.4157 8.88638L43.9112 16.1116L45.1524 16.2161C45.1524 16.46 45.0783 16.7213 44.9303 17H41.9252L41.886 16.5427C42.0864 16.4382 42.3781 16.3467 42.7614 16.2683L42.0951 14.4H38.4498L37.8357 16.1116L38.894 16.2161C38.894 16.46 38.82 16.7213 38.6719 17H35.6669L35.6277 16.5427C35.9674 16.4208 36.3289 16.325 36.7121 16.2553L39.2468 8.84718C38.4716 8.76008 37.9272 8.65556 37.6136 8.53361L37.6659 8.12858ZM41.0629 11.4864L40.3704 8.92557C40.3182 8.91686 40.2441 8.91251 40.1483 8.91251L39.4428 11.5779L38.685 13.5638H41.8599L41.0629 11.4864ZM49.3713 11.1859C48.8051 11.1859 48.1823 11.3688 47.5029 11.7346C47.4855 12.536 47.4681 13.2807 47.4506 13.9688C47.4419 14.6482 47.4332 15.1229 47.4245 15.393C47.6423 15.6107 47.9341 15.811 48.2999 15.994C48.6657 16.1769 48.9836 16.2683 49.2537 16.2683C50.2815 16.2683 50.7954 15.4234 50.7954 13.7336C50.7954 13.0891 50.7213 12.5839 50.5733 12.2181C50.4252 11.8435 50.2553 11.5779 50.0637 11.4211C49.8721 11.2643 49.6413 11.1859 49.3713 11.1859ZM47.1371 7.2924C47.4071 7.2924 47.5987 7.30111 47.7119 7.31853C47.7119 7.57984 47.6553 7.92825 47.5421 8.36376C47.5421 8.5641 47.5377 8.84718 47.529 9.21301C47.5116 9.92726 47.5029 10.5326 47.5029 11.0291C48.583 10.4804 49.2841 10.206 49.6064 10.206C50.4165 10.206 51.0175 10.5239 51.4095 11.1598C51.8014 11.7869 51.9974 12.6057 51.9974 13.6161C51.9974 14.6177 51.7753 15.4583 51.3311 16.1377C50.8955 16.8171 50.2597 17.1568 49.4235 17.1568C49.0838 17.1568 48.7093 17.061 48.2999 16.8693C47.8992 16.6777 47.5552 16.4513 47.2677 16.1899C47.2329 16.5122 47.1632 16.8084 47.0587 17.0784C47.0238 17.0871 46.9585 17.0915 46.8627 17.0915C46.7669 17.0915 46.6275 17.0784 46.4446 17.0523L46.3009 8.33763C45.8654 8.3115 45.4821 8.25488 45.1511 8.16778L45.2034 7.48838C45.6476 7.35773 46.2922 7.2924 47.1371 7.2924ZM56.1003 16.2683C56.4836 16.2683 57.0846 16.0854 57.9033 15.7196C58.0688 15.9461 58.1559 16.1464 58.1647 16.3206C57.7204 16.5819 57.2849 16.7866 56.8581 16.9347C56.4313 17.0827 56.1265 17.1568 55.9435 17.1568C54.9331 17.1568 54.1623 16.8563 53.631 16.2553C53.0996 15.6456 52.834 14.7963 52.834 13.7075C52.834 12.6187 53.0909 11.7651 53.6048 11.1467C54.1274 10.5196 54.907 10.206 55.9435 10.206C56.7449 10.206 57.3546 10.4934 57.7727 11.0683C58.1995 11.6432 58.4129 12.414 58.4129 13.3809C58.3432 13.5028 58.2866 13.5856 58.243 13.6291L54.036 13.5638C54.0447 14.4435 54.1971 15.1142 54.4933 15.5759C54.7981 16.0375 55.3338 16.2683 56.1003 16.2683ZM57.2239 12.8191C57.2239 12.2442 57.1194 11.8 56.9104 11.4864C56.7013 11.1641 56.3529 11.003 55.8651 11.003C55.3774 11.003 54.9419 11.0944 54.5586 11.2773C54.2973 11.8 54.1318 12.3356 54.0621 12.8844C54.7502 12.8757 55.8042 12.8539 57.2239 12.8191ZM63.3172 11.3035C63.2736 11.2599 63.1778 11.2382 63.0298 11.2382C62.8817 11.2382 62.6596 11.2904 62.3634 11.3949C62.076 11.4995 61.8147 11.6214 61.5795 11.7608C61.5272 13.6945 61.4924 15.1447 61.475 16.1116L62.5725 16.2161C62.5725 16.46 62.4984 16.7213 62.3504 17H59.3453L59.3061 16.5427C59.7068 16.4033 60.0988 16.2988 60.482 16.2291C60.4297 14.0167 60.3862 12.3792 60.3514 11.3165C59.8723 11.2904 59.489 11.2382 59.2016 11.1598L59.2539 10.4804C59.7155 10.3497 60.3993 10.2844 61.3051 10.2844C61.4445 10.5021 61.5316 10.7809 61.5664 11.1206C62.5681 10.5108 63.1648 10.206 63.3564 10.206C63.548 10.206 63.7701 10.2452 64.0227 10.3236C64.2753 10.3933 64.4626 10.4716 64.5845 10.5588C64.5845 11.4298 64.5018 12.1397 64.3363 12.6884C64.2144 12.7233 64.0706 12.7407 63.9051 12.7407C63.7484 12.7407 63.6395 12.7363 63.5785 12.7276L63.3172 11.3035ZM69.025 11.3035C68.9815 11.2599 68.8857 11.2382 68.7376 11.2382C68.5895 11.2382 68.3674 11.2904 68.0713 11.3949C67.7838 11.4995 67.5225 11.6214 67.2873 11.7608C67.2351 13.6945 67.2002 15.1447 67.1828 16.1116L68.2803 16.2161C68.2803 16.46 68.2063 16.7213 68.0582 17H65.0531L65.0139 16.5427C65.4146 16.4033 65.8066 16.2988 66.1898 16.2291C66.1376 14.0167 66.094 12.3792 66.0592 11.3165C65.5801 11.2904 65.1969 11.2382 64.9094 11.1598L64.9617 10.4804C65.4233 10.3497 66.1071 10.2844 67.013 10.2844C67.1523 10.5021 67.2394 10.7809 67.2743 11.1206C68.2759 10.5108 68.8726 10.206 69.0642 10.206C69.2558 10.206 69.478 10.2452 69.7306 10.3236C69.9832 10.3933 70.1704 10.4716 70.2924 10.5588C70.2924 11.4298 70.2096 12.1397 70.0441 12.6884C69.9222 12.7233 69.7785 12.7407 69.613 12.7407C69.4562 12.7407 69.3473 12.7363 69.2863 12.7276L69.025 11.3035ZM75.9741 12.7276L75.9087 16.0985C76.2833 16.1246 76.6578 16.1856 77.0324 16.2814L77.0062 16.7387C76.8669 16.8084 76.6143 16.8868 76.2484 16.9739C75.8913 17.0523 75.5385 17.0915 75.1901 17.0915C75.0334 16.7779 74.9462 16.4774 74.9288 16.1899C73.9359 16.8432 73.239 17.1699 72.8384 17.1699C72.2199 17.1699 71.7234 17.0044 71.3489 16.6734C70.9744 16.3424 70.7871 15.8807 70.7871 15.2884C70.7871 13.9209 71.6233 13.2154 73.2957 13.1718C74.2712 13.1457 74.7633 13.1326 74.772 13.1326L74.759 12.6884C74.7416 12.0874 74.6283 11.6562 74.4193 11.3949C74.2102 11.1249 73.8357 10.9899 73.2957 10.9899C73.0692 10.9899 72.8253 11.0422 72.564 11.1467L72.2504 12.4532C72.2069 12.4619 72.1328 12.4663 72.0283 12.4663L71.4926 12.4271C71.3533 12.0526 71.2792 11.5343 71.2705 10.8723C71.436 10.7852 71.8149 10.6546 72.4072 10.4804C72.9995 10.2974 73.3784 10.206 73.5439 10.206C74.4323 10.206 75.0595 10.402 75.4253 10.7939C75.7911 11.1859 75.9741 11.8305 75.9741 12.7276ZM73.1258 16.2814C73.3784 16.2814 73.962 15.9983 74.8766 15.4322L74.8112 13.799C74.2189 13.8512 73.7225 13.8991 73.3218 13.9427C72.9211 13.9862 72.5988 14.1038 72.3549 14.2955C72.1111 14.4784 71.9891 14.7702 71.9891 15.1708C71.9891 15.9112 72.368 16.2814 73.1258 16.2814ZM81.6798 10.206C82.516 10.206 83.1214 10.415 83.4959 10.8331C83.8705 11.2425 84.0578 11.8696 84.0578 12.7145C84.0578 12.9584 84.0229 14.0908 83.9532 16.1116L85.0507 16.2161C85.0507 16.46 84.9767 16.7213 84.8286 17H81.8236L81.7844 16.5427C82.185 16.4033 82.577 16.2988 82.9603 16.2291C82.908 13.947 82.8601 12.6797 82.8165 12.4271C82.7817 12.1658 82.7207 11.9393 82.6336 11.7477C82.5465 11.5561 82.4159 11.4211 82.2417 11.3427C82.0675 11.2643 81.8366 11.2251 81.5492 11.2251C80.9743 11.2251 80.4169 11.3645 79.8768 11.6432C79.8246 13.6291 79.7897 15.1186 79.7723 16.1116L80.8698 16.2161C80.8698 16.46 80.7958 16.7213 80.6477 17H77.6426L77.6034 16.5427C78.0041 16.4033 78.3961 16.2988 78.7793 16.2291C78.7271 14.0167 78.6835 12.3792 78.6487 11.3165C78.1696 11.2904 77.7864 11.2382 77.4989 11.1598L77.5512 10.4804C78.0215 10.3497 78.7053 10.2844 79.6024 10.2844C79.707 10.4412 79.7854 10.6676 79.8376 10.9638C80.2122 10.7634 80.5867 10.5892 80.9612 10.4412C81.3445 10.2844 81.584 10.206 81.6798 10.206ZM86.4599 16.1899L86.3554 11.2643H85.3494L85.3102 10.807C85.3973 10.746 85.6499 10.6328 86.068 10.4673L87.1393 8.79492C87.3135 8.81234 87.4485 8.85589 87.5444 8.92557L87.5313 10.3628C88.1846 10.3628 88.7202 10.4063 89.1383 10.4934C89.1383 10.7286 89.0643 10.9856 88.9162 11.2643H87.5052C87.4877 12.3095 87.4703 13.8948 87.4529 16.0201C87.9407 16.0462 88.4284 16.1333 88.9162 16.2814L88.9032 16.7387C88.7812 16.8171 88.4676 16.9085 87.9624 17.0131C87.466 17.1176 87.0566 17.1699 86.7343 17.1699C86.6907 17.1002 86.6341 16.9521 86.5644 16.7256C86.4948 16.4904 86.4599 16.3119 86.4599 16.1899Z" fill="white"/>
<defs>
<clipPath id="clip0_50_10015">
<rect width="12" height="14" fill="white" transform="translate(19.5624 5.5)"/>
</clipPath>
</defs>
</svg>
