<svg width="110" height="25" viewBox="0 0 110 25" fill="none" xmlns="http://www.w3.org/2000/svg">
<rect width="110" height="25" rx="12.2488" fill="#734A12"/>
<path d="M46.6025 17.1699C44.0417 17.1699 42.7613 15.5628 42.7613 12.3487C42.7613 10.8244 43.0705 9.66595 43.689 8.87331C44.3161 8.08068 45.3134 7.68436 46.6809 7.68436C47.7784 7.68436 48.754 7.98922 49.6076 8.59894C49.6076 9.08672 49.5466 9.70514 49.4247 10.4542C49.3027 10.4804 49.0501 10.4934 48.6669 10.4934L48.2749 8.87331C47.6565 8.76008 47.16 8.70346 46.7855 8.70346C46.0973 8.70346 45.492 8.79928 44.9694 8.9909L44.7211 9.08236C44.6689 9.16946 44.6035 9.30012 44.5251 9.47432C44.4467 9.63982 44.3422 9.99258 44.2116 10.5326C44.0896 11.0727 44.0287 11.6258 44.0287 12.1919C44.0287 13.4201 44.229 14.3956 44.6297 15.1186C45.039 15.8415 45.688 16.203 46.5764 16.203C47.2123 16.203 47.6913 16.1377 48.0136 16.007C48.1007 15.9635 48.227 15.8982 48.3925 15.811L48.6669 14.2432L49.4247 14.2824C49.5553 15.1796 49.6207 15.9069 49.6207 16.4643C49.4377 16.6037 49.0414 16.7561 48.4317 16.9216C47.8307 17.0871 47.221 17.1699 46.6025 17.1699ZM53.5464 16.3729C54.278 16.3729 54.7702 16.1464 55.0228 15.6935C55.2841 15.2318 55.4147 14.5785 55.4147 13.7336C55.4147 12.3923 55.1186 11.5517 54.5263 11.212C54.2824 11.0727 53.9383 11.003 53.4941 11.003C53.0586 11.003 52.6449 11.0944 52.2529 11.2773C51.9045 11.948 51.7303 12.7276 51.7303 13.6161C51.7303 14.4697 51.8435 15.1273 52.07 15.5889C52.3313 16.1116 52.8234 16.3729 53.5464 16.3729ZM50.5283 13.7336C50.5283 12.6274 50.7809 11.7651 51.2861 11.1467C51.7913 10.5196 52.5708 10.206 53.6248 10.206C54.6787 10.206 55.4409 10.4934 55.9112 11.0683C56.3816 11.6345 56.6167 12.475 56.6167 13.5899C56.6167 14.7048 56.3641 15.5802 55.859 16.2161C55.3625 16.8519 54.6047 17.1699 53.5856 17.1699C52.5665 17.1699 51.8 16.8737 51.2861 16.2814C50.7809 15.6891 50.5283 14.8399 50.5283 13.7336ZM59.161 7.2924C59.431 7.2924 59.6226 7.30111 59.7359 7.31853C59.7359 7.62339 59.6793 7.9718 59.566 8.36376C59.4876 13.5028 59.4484 16.0854 59.4484 16.1116L60.5459 16.2161C60.5459 16.46 60.4719 16.7213 60.3238 17H57.3188L57.2796 16.5427C57.6803 16.4033 58.0722 16.2988 58.4555 16.2291L58.3248 8.32457C57.8458 8.29843 57.4625 8.24617 57.1751 8.16778L57.2273 7.48838C57.6715 7.35773 58.3161 7.2924 59.161 7.2924ZM64.1072 16.3729C64.8388 16.3729 65.3309 16.1464 65.5835 15.6935C65.8449 15.2318 65.9755 14.5785 65.9755 13.7336C65.9755 12.3923 65.6794 11.5517 65.0871 11.212C64.8432 11.0727 64.4991 11.003 64.0549 11.003C63.6194 11.003 63.2056 11.0944 62.8137 11.2773C62.4653 11.948 62.2911 12.7276 62.2911 13.6161C62.2911 14.4697 62.4043 15.1273 62.6308 15.5889C62.8921 16.1116 63.3842 16.3729 64.1072 16.3729ZM61.089 13.7336C61.089 12.6274 61.3416 11.7651 61.8468 11.1467C62.352 10.5196 63.1316 10.206 64.1855 10.206C65.2395 10.206 66.0016 10.4934 66.472 11.0683C66.9424 11.6345 67.1775 12.475 67.1775 13.5899C67.1775 14.7048 66.9249 15.5802 66.4197 16.2161C65.9232 16.8519 65.1655 17.1699 64.1464 17.1699C63.1272 17.1699 62.3607 16.8737 61.8468 16.2814C61.3416 15.6891 61.089 14.8399 61.089 13.7336ZM69.0424 16.1638C69.3472 16.2945 69.7174 16.3598 70.1529 16.3598C70.5972 16.3598 70.9456 16.277 71.1982 16.1116C71.4508 15.9461 71.5771 15.7196 71.5771 15.4322C71.5771 15.1447 71.4595 14.9052 71.2243 14.7136C70.9891 14.5219 70.7017 14.3521 70.362 14.204C70.0223 14.0559 69.6826 13.8991 69.3429 13.7336C69.0032 13.5682 68.7158 13.3504 68.4806 13.0804C68.2454 12.8104 68.1278 12.4968 68.1278 12.1397C68.1278 11.5387 68.3281 11.0683 68.7288 10.7286C69.1295 10.3802 69.6826 10.206 70.3881 10.206C71.1024 10.206 71.7731 10.3671 72.4002 10.6894C72.4089 10.7765 72.4133 11.0117 72.4133 11.3949C72.4133 11.7695 72.3741 12.0918 72.2957 12.3618C72.0866 12.4315 71.8384 12.4663 71.5509 12.4663L71.1198 11.1336C70.9282 11.0378 70.6669 10.9899 70.3359 10.9899C70.0136 10.9899 69.7566 11.077 69.565 11.2512C69.3734 11.4167 69.2776 11.6301 69.2776 11.8914C69.2776 12.144 69.3952 12.3661 69.6303 12.5578C69.8742 12.7494 70.166 12.9236 70.5057 13.0804C70.8454 13.2285 71.1851 13.3896 71.5248 13.5638C71.8645 13.7293 72.152 13.9514 72.3871 14.2301C72.631 14.5002 72.753 14.8137 72.753 15.1708C72.753 15.798 72.5091 16.2901 72.0213 16.6472C71.5422 16.9956 70.9499 17.1699 70.2444 17.1699C69.8612 17.1699 69.4518 17.1089 69.0163 16.9869C68.5807 16.8563 68.2149 16.6908 67.9188 16.4904C67.9188 15.9069 67.971 15.3886 68.0755 14.9357C68.2759 14.9008 68.5459 14.8834 68.8856 14.8834L69.0424 16.1638ZM74.7885 16.1638C75.0933 16.2945 75.4635 16.3598 75.899 16.3598C76.3433 16.3598 76.6917 16.277 76.9443 16.1116C77.1969 15.9461 77.3232 15.7196 77.3232 15.4322C77.3232 15.1447 77.2056 14.9052 76.9704 14.7136C76.7352 14.5219 76.4478 14.3521 76.1081 14.204C75.7684 14.0559 75.4287 13.8991 75.089 13.7336C74.7493 13.5682 74.4619 13.3504 74.2267 13.0804C73.9915 12.8104 73.8739 12.4968 73.8739 12.1397C73.8739 11.5387 74.0742 11.0683 74.4749 10.7286C74.8756 10.3802 75.4287 10.206 76.1342 10.206C76.8485 10.206 77.5192 10.3671 78.1463 10.6894C78.155 10.7765 78.1594 11.0117 78.1594 11.3949C78.1594 11.7695 78.1202 12.0918 78.0418 12.3618C77.8327 12.4315 77.5845 12.4663 77.297 12.4663L76.8659 11.1336C76.6743 11.0378 76.413 10.9899 76.082 10.9899C75.7597 10.9899 75.5027 11.077 75.3111 11.2512C75.1195 11.4167 75.0237 11.6301 75.0237 11.8914C75.0237 12.144 75.1413 12.3661 75.3764 12.5578C75.6203 12.7494 75.9121 12.9236 76.2518 13.0804C76.5915 13.2285 76.9312 13.3896 77.2709 13.5638C77.6106 13.7293 77.8981 13.9514 78.1332 14.2301C78.3771 14.5002 78.4991 14.8137 78.4991 15.1708C78.4991 15.798 78.2552 16.2901 77.7674 16.6472C77.2883 16.9956 76.696 17.1699 75.9905 17.1699C75.6073 17.1699 75.1979 17.1089 74.7624 16.9869C74.3268 16.8563 73.961 16.6908 73.6649 16.4904C73.6649 15.9069 73.7171 15.3886 73.8216 14.9357C74.022 14.9008 74.292 14.8834 74.6317 14.8834L74.7885 16.1638ZM84.7025 12.7276L84.6371 16.0985C85.0117 16.1246 85.3862 16.1856 85.7608 16.2814L85.7346 16.7387C85.5953 16.8084 85.3427 16.8868 84.9768 16.9739C84.6197 17.0523 84.2669 17.0915 83.9185 17.0915C83.7617 16.7779 83.6746 16.4774 83.6572 16.1899C82.6643 16.8432 81.9674 17.1699 81.5668 17.1699C80.9483 17.1699 80.4518 17.0044 80.0773 16.6734C79.7028 16.3424 79.5155 15.8807 79.5155 15.2884C79.5155 13.9209 80.3517 13.2154 82.024 13.1718C82.9996 13.1457 83.4917 13.1326 83.5004 13.1326L83.4874 12.6884C83.47 12.0874 83.3567 11.6562 83.1477 11.3949C82.9386 11.1249 82.5641 10.9899 82.024 10.9899C81.7976 10.9899 81.5537 11.0422 81.2924 11.1467L80.9788 12.4532C80.9353 12.4619 80.8612 12.4663 80.7567 12.4663L80.221 12.4271C80.0817 12.0526 80.0076 11.5343 79.9989 10.8723C80.1644 10.7852 80.5433 10.6546 81.1356 10.4804C81.7279 10.2974 82.1068 10.206 82.2723 10.206C83.1607 10.206 83.7879 10.402 84.1537 10.7939C84.5195 11.1859 84.7025 11.8305 84.7025 12.7276ZM81.8542 16.2814C82.1068 16.2814 82.6904 15.9983 83.605 15.4322L83.5396 13.799C82.9473 13.8512 82.4508 13.8991 82.0502 13.9427C81.6495 13.9862 81.3272 14.1038 81.0833 14.2955C80.8394 14.4784 80.7175 14.7702 80.7175 15.1708C80.7175 15.9112 81.0964 16.2814 81.8542 16.2814ZM88.0957 7.2924C88.3657 7.2924 88.5573 7.30111 88.6705 7.31853C88.6705 7.62339 88.6139 7.9718 88.5007 8.36376C88.4223 13.5028 88.3831 16.0854 88.3831 16.1116L89.4806 16.2161C89.4806 16.46 89.4066 16.7213 89.2585 17H86.2534L86.2142 16.5427C86.6149 16.4033 87.0069 16.2988 87.3901 16.2291L87.2595 8.32457C86.7804 8.29843 86.3972 8.24617 86.1097 8.16778L86.162 7.48838C86.6062 7.35773 87.2508 7.2924 88.0957 7.2924Z" fill="white"/>
<g clip-path="url(#clip0_50_10017)">
<path d="M34.7852 11.3071C35.7043 11.0138 36.6234 10.3607 37.5425 9.41304C36.6228 8.44879 35.7239 7.97379 34.7852 7.79507V6.45142H23.5787V7.42695H19.8054C20.4859 9.27292 21.978 10.5453 23.5787 10.9805V12.5718H26.5297C26.0172 14.3121 24.955 15.7406 23.6565 16.9768H22.5414V17.9529C22.5367 17.9571 22.5319 17.9607 22.5272 17.9648H22.5414V19.2847H36.4975V16.9774H35.0138C33.5626 15.7424 32.5337 14.315 32.0545 12.5724H34.7852V11.3071Z" fill="white"/>
</g>
<defs>
<clipPath id="clip0_50_10017">
<rect width="19" height="13" fill="white" transform="translate(19.5 6.5)"/>
</clipPath>
</defs>
</svg>
