<svg width="110" height="25" viewBox="0 0 110 25" fill="none" xmlns="http://www.w3.org/2000/svg">
<rect width="110" height="25" rx="12.2488" fill="#800080"/>
<path d="M48.3322 17.1699C45.7714 17.1699 44.491 15.5628 44.491 12.3487C44.491 10.8244 44.8002 9.66595 45.4186 8.87331C46.0458 8.08068 47.0431 7.68436 48.4106 7.68436C49.5081 7.68436 50.4836 7.98922 51.3372 8.59894C51.3372 9.08672 51.2763 9.70514 51.1543 10.4542C51.0324 10.4804 50.7798 10.4934 50.3965 10.4934L50.0046 8.87331C49.3861 8.76008 48.8897 8.70346 48.5151 8.70346C47.827 8.70346 47.2216 8.79928 46.699 8.9909L46.4508 9.08236C46.3985 9.16946 46.3332 9.30012 46.2548 9.47432C46.1764 9.63982 46.0719 9.99258 45.9412 10.5326C45.8193 11.0727 45.7583 11.6258 45.7583 12.1919C45.7583 13.4201 45.9587 14.3956 46.3593 15.1186C46.7687 15.8415 47.4176 16.203 48.3061 16.203C48.9419 16.203 49.421 16.1377 49.7433 16.007C49.8304 15.9635 49.9567 15.8982 50.1222 15.811L50.3965 14.2432L51.1543 14.2824C51.285 15.1796 51.3503 15.9069 51.3503 16.4643C51.1674 16.6037 50.7711 16.7561 50.1614 16.9216C49.5604 17.0871 48.9506 17.1699 48.3322 17.1699ZM55.276 16.3729C56.0077 16.3729 56.4998 16.1464 56.7524 15.6935C57.0137 15.2318 57.1444 14.5785 57.1444 13.7336C57.1444 12.3923 56.8482 11.5517 56.2559 11.212C56.0121 11.0727 55.668 11.003 55.2238 11.003C54.7883 11.003 54.3745 11.0944 53.9826 11.2773C53.6341 11.948 53.4599 12.7276 53.4599 13.6161C53.4599 14.4697 53.5732 15.1273 53.7996 15.5889C54.061 16.1116 54.5531 16.3729 55.276 16.3729ZM52.2579 13.7336C52.2579 12.6274 52.5105 11.7651 53.0157 11.1467C53.5209 10.5196 54.3005 10.206 55.3544 10.206C56.4084 10.206 57.1705 10.4934 57.6409 11.0683C58.1112 11.6345 58.3464 12.475 58.3464 13.5899C58.3464 14.7048 58.0938 15.5802 57.5886 16.2161C57.0921 16.8519 56.3343 17.1699 55.3152 17.1699C54.2961 17.1699 53.5296 16.8737 53.0157 16.2814C52.5105 15.6891 52.2579 14.8399 52.2579 13.7336ZM60.2113 16.1638C60.5161 16.2945 60.8863 16.3598 61.3218 16.3598C61.7661 16.3598 62.1145 16.277 62.3671 16.1116C62.6197 15.9461 62.746 15.7196 62.746 15.4322C62.746 15.1447 62.6284 14.9052 62.3932 14.7136C62.158 14.5219 61.8706 14.3521 61.5309 14.204C61.1912 14.0559 60.8515 13.8991 60.5118 13.7336C60.1721 13.5682 59.8846 13.3504 59.6495 13.0804C59.4143 12.8104 59.2967 12.4968 59.2967 12.1397C59.2967 11.5387 59.497 11.0683 59.8977 10.7286C60.2984 10.3802 60.8515 10.206 61.557 10.206C62.2712 10.206 62.9419 10.3671 63.5691 10.6894C63.5778 10.7765 63.5821 11.0117 63.5821 11.3949C63.5821 11.7695 63.5429 12.0918 63.4646 12.3618C63.2555 12.4315 63.0073 12.4663 62.7198 12.4663L62.2887 11.1336C62.097 11.0378 61.8357 10.9899 61.5047 10.9899C61.1825 10.9899 60.9255 11.077 60.7339 11.2512C60.5423 11.4167 60.4464 11.6301 60.4464 11.8914C60.4464 12.144 60.564 12.3661 60.7992 12.5578C61.0431 12.7494 61.3349 12.9236 61.6746 13.0804C62.0143 13.2285 62.354 13.3896 62.6937 13.5638C63.0334 13.7293 63.3208 13.9514 63.556 14.2301C63.7999 14.5002 63.9218 14.8137 63.9218 15.1708C63.9218 15.798 63.678 16.2901 63.1902 16.6472C62.7111 16.9956 62.1188 17.1699 61.4133 17.1699C61.03 17.1699 60.6206 17.1089 60.1851 16.9869C59.7496 16.8563 59.3838 16.6908 59.0876 16.4904C59.0876 15.9069 59.1399 15.3886 59.2444 14.9357C59.4448 14.9008 59.7148 14.8834 60.0545 14.8834L60.2113 16.1638ZM71.2097 11.6693C71.2445 11.948 71.2619 12.2703 71.2619 12.6362C71.2619 13.002 71.2271 14.1605 71.1574 16.1116L72.2549 16.2161C72.2549 16.46 72.1809 16.7213 72.0328 17H69.0277L68.9885 16.5427C69.3892 16.4033 69.7812 16.2988 70.1644 16.2291C70.1122 13.9122 70.0643 12.6231 70.0207 12.3618C69.9859 12.1005 69.9249 11.8827 69.8378 11.7085C69.7507 11.5256 69.6157 11.3993 69.4328 11.3296C69.2499 11.2599 68.9711 11.2251 68.5966 11.2251C68.2308 11.2251 67.7473 11.3645 67.1463 11.6432C67.0941 13.6291 67.0592 15.1186 67.0418 16.1116L68.1393 16.2161C68.1393 16.46 68.0653 16.7213 67.9172 17H64.9121L64.8729 16.5427C65.2736 16.4033 65.6656 16.2988 66.0488 16.2291C66.0401 15.602 66.0183 14.7179 65.9835 13.5769C65.9487 12.4271 65.9269 11.6737 65.9182 11.3165C65.4391 11.2904 65.0559 11.2382 64.7684 11.1598L64.8207 10.4804C65.291 10.3497 65.9748 10.2844 66.8719 10.2844C66.9939 10.5021 67.0723 10.7286 67.1071 10.9638C67.4904 10.7634 67.8693 10.5892 68.2438 10.4412C68.6184 10.2844 68.8535 10.206 68.9493 10.206C69.9162 10.206 70.5912 10.5021 70.9745 11.0944C71.3752 10.8767 71.7889 10.6763 72.2157 10.4934C72.6512 10.3018 72.9125 10.206 72.9996 10.206C73.7923 10.206 74.3846 10.402 74.7765 10.7939C75.1772 11.1772 75.3775 11.8087 75.3775 12.6884C75.3775 12.9497 75.3427 14.0908 75.273 16.1116L76.3705 16.2161C76.3705 16.46 76.2965 16.7213 76.1484 17H73.1433L73.1041 16.5427C73.5048 16.4033 73.8968 16.2988 74.28 16.2291C74.2452 14.8529 74.2147 13.812 74.1886 13.1065C74.1624 12.401 74.0623 11.9132 73.8881 11.6432C73.7139 11.3645 73.3655 11.2251 72.8428 11.2251C72.3202 11.2251 71.7758 11.3732 71.2097 11.6693ZM79.159 9.12156C78.9326 9.17382 78.7104 9.19995 78.4927 9.19995C78.2836 9.19995 78.0746 9.18688 77.8655 9.16075C77.8133 8.91686 77.7872 8.67298 77.7872 8.42909C77.7872 8.17649 77.7959 7.98922 77.8133 7.86728C78.0049 7.82372 78.2052 7.80195 78.4143 7.80195C78.6321 7.80195 78.8629 7.81066 79.1068 7.82808C79.159 8.05455 79.1852 8.27666 79.1852 8.49442C79.1852 8.70346 79.1764 8.91251 79.159 9.12156ZM76.7811 10.4934C77.5215 10.3628 78.0964 10.2974 78.5058 10.2974C78.9151 10.2974 79.1764 10.3062 79.2897 10.3236C79.2897 10.5326 79.2635 10.7634 79.2113 11.016C79.159 11.2686 79.1285 11.3906 79.1198 11.3819L79.0022 16.1116L80.0997 16.2161C80.0997 16.46 80.0257 16.7213 79.8776 17H76.8726L76.8334 16.5427C77.2341 16.4033 77.626 16.2988 78.0093 16.2291C77.957 14.0516 77.9135 12.4184 77.8786 11.3296C77.3734 11.3296 76.9902 11.2773 76.7289 11.1728L76.7811 10.4934ZM83.7746 17.1568C82.7293 17.1568 81.9498 16.865 81.4359 16.2814C80.9219 15.6891 80.665 14.8486 80.665 13.7598C80.665 11.3906 81.7189 10.206 83.8268 10.206C84.1665 10.206 84.5193 10.2582 84.8851 10.3628C85.251 10.4586 85.5384 10.5675 85.7474 10.6894C85.7213 11.4995 85.6386 12.0743 85.4992 12.414C85.3424 12.4576 85.2161 12.4794 85.1203 12.4794H84.8982C84.8546 12.4794 84.8024 12.475 84.7414 12.4663L84.4148 11.0291C84.1273 11.003 83.9618 10.9899 83.9183 10.9899C83.2911 10.9899 82.7903 11.1815 82.4158 11.5648C82.0499 11.948 81.867 12.5926 81.867 13.4985C81.867 14.4043 82.0064 15.0924 82.2851 15.5628C82.5725 16.0332 83.1213 16.2683 83.9313 16.2683C84.3146 16.2683 84.9156 16.0854 85.7344 15.7196C85.8999 15.9461 85.987 16.1464 85.9957 16.3206C85.5515 16.5819 85.1159 16.7866 84.6891 16.9347C84.2623 17.0827 83.9575 17.1568 83.7746 17.1568Z" fill="white"/>
<path d="M30.1034 8.59379C30.8866 7.22571 31.2783 6.54167 31.8637 6.54167C32.4492 6.54167 32.8409 7.22571 33.6241 8.59379L33.8267 8.94773C34.0493 9.3365 34.1606 9.53088 34.3341 9.65914C34.5076 9.78739 34.7237 9.83501 35.1559 9.93022L35.5494 10.0169C37.0703 10.352 37.8308 10.5195 38.0117 11.0861C38.1927 11.6525 37.6742 12.2428 36.6373 13.4234L36.3691 13.7288C36.0744 14.0644 35.9271 14.2321 35.8608 14.4397C35.7946 14.6471 35.8168 14.871 35.8614 15.3186L35.9019 15.7261C36.0587 17.3012 36.137 18.0888 35.6634 18.439C35.1897 18.7891 34.4777 18.4699 33.0537 17.8314L32.6852 17.6663C32.2806 17.4848 32.0782 17.3941 31.8637 17.3941C31.6493 17.3941 31.4469 17.4848 31.0423 17.6663L30.6738 17.8314C29.2498 18.4699 28.5377 18.7891 28.0641 18.439C27.5904 18.0888 27.6688 17.3012 27.8255 15.7261L27.8661 15.3186C27.9106 14.871 27.9329 14.6471 27.8666 14.4397C27.8004 14.2321 27.653 14.0644 27.3584 13.7288L27.0901 13.4234C26.0532 12.2428 25.5348 11.6525 25.7157 11.0861C25.8967 10.5195 26.6571 10.352 28.1781 10.0169L28.5716 9.93022C29.0038 9.83501 29.2199 9.78739 29.3934 9.65914C29.5669 9.53088 29.6782 9.3365 29.9008 8.94773L30.1034 8.59379Z" fill="white"/>
<path d="M26.3113 4.77124C26.3331 4.69632 26.4697 4.69586 26.4921 4.77065C26.5941 5.11214 26.7832 5.61692 27.0692 5.89351C27.3552 6.1701 27.8748 6.35083 28.2262 6.44783C28.3032 6.46907 28.3037 6.60207 28.2268 6.62382C27.8761 6.72313 27.3577 6.90728 27.0737 7.18574C26.7896 7.46421 26.604 7.97021 26.5044 8.31237C26.4825 8.3873 26.3459 8.38775 26.3236 8.31296C26.2216 7.97147 26.0325 7.46669 25.7465 7.19011C25.4605 6.91352 24.9408 6.73278 24.5894 6.63578C24.5125 6.61454 24.512 6.48154 24.5888 6.45979C24.9395 6.36048 25.458 6.17634 25.742 5.89787C26.0261 5.6194 26.2117 5.1134 26.3113 4.77124Z" fill="white"/>
<path fill-rule="evenodd" clip-rule="evenodd" d="M36.5923 5.30208C36.8936 5.30208 37.1379 5.53994 37.1379 5.83333V6.01042H37.3198C37.6211 6.01042 37.8654 6.24827 37.8654 6.54167C37.8654 6.83507 37.6211 7.07292 37.3198 7.07292H37.1379V7.25C37.1379 7.5434 36.8936 7.78125 36.5923 7.78125C36.291 7.78125 36.0467 7.5434 36.0467 7.25V7.07292H35.8648C35.5635 7.07292 35.3192 6.83507 35.3192 6.54167C35.3192 6.24827 35.5635 6.01042 35.8648 6.01042H36.0467V5.83333C36.0467 5.53994 36.291 5.30208 36.5923 5.30208Z" fill="white"/>
</svg>
