<svg width="110" height="25" viewBox="0 0 110 25" fill="none" xmlns="http://www.w3.org/2000/svg">
<rect width="110" height="25" rx="12.2488" fill="#F2C6DE"/>
<path d="M37.0387 8.75572L36.9734 11.9045H39.0377L39.1422 10.9638C39.3861 10.9638 39.6474 11.0378 39.9261 11.1859V13.6683L39.4689 13.7075C39.3382 13.333 39.2511 13.0194 39.2076 12.7668H36.9734C36.9559 13.5246 36.9385 14.6439 36.9211 16.1246H39.9131L40.2267 14.8965L40.9844 14.9487C41.1064 15.4452 41.1674 15.8851 41.1674 16.2683C41.1674 16.6429 41.1587 16.8868 41.1412 17H34.7914L34.7522 16.5427C35.1355 16.4033 35.5057 16.3032 35.8628 16.2422C35.8105 12.8452 35.767 10.3192 35.7322 8.66427C35.5405 8.64685 35.1573 8.54232 34.5824 8.3507L34.6477 7.85421H40.9453C40.9627 7.96744 40.9714 8.14165 40.9714 8.37683C40.9714 8.85589 40.9104 9.37415 40.7885 9.93161C40.5968 9.97516 40.3442 9.99694 40.0307 9.99694L39.7171 8.75572H37.0387ZM46.3461 10.206C47.1823 10.206 47.7877 10.415 48.1622 10.8331C48.5368 11.2425 48.724 11.8696 48.724 12.7145C48.724 12.9584 48.6892 14.0908 48.6195 16.1116L49.717 16.2161C49.717 16.46 49.643 16.7213 49.4949 17H46.4899L46.4507 16.5427C46.8513 16.4033 47.2433 16.2988 47.6266 16.2291C47.5743 13.947 47.5264 12.6797 47.4828 12.4271C47.448 12.1658 47.387 11.9393 47.2999 11.7477C47.2128 11.5561 47.0822 11.4211 46.908 11.3427C46.7337 11.2643 46.5029 11.2251 46.2155 11.2251C45.6406 11.2251 45.0832 11.3645 44.5431 11.6432C44.4909 13.6291 44.456 15.1186 44.4386 16.1116L45.5361 16.2161C45.5361 16.46 45.462 16.7213 45.314 17H42.3089L42.2697 16.5427C42.6704 16.4033 43.0624 16.2988 43.4456 16.2291C43.3934 14.0167 43.3498 12.3792 43.315 11.3165C42.8359 11.2904 42.4526 11.2382 42.1652 11.1598L42.2175 10.4804C42.6878 10.3497 43.3716 10.2844 44.2687 10.2844C44.3733 10.4412 44.4517 10.6676 44.5039 10.9638C44.8785 10.7634 45.253 10.5892 45.6275 10.4412C46.0108 10.2844 46.2503 10.206 46.3461 10.206ZM53.2689 17.1568C52.2237 17.1568 51.4441 16.865 50.9302 16.2814C50.4163 15.6891 50.1594 14.8486 50.1594 13.7598C50.1594 11.3906 51.2133 10.206 53.3212 10.206C53.6609 10.206 54.0137 10.2582 54.3795 10.3628C54.7453 10.4586 55.0328 10.5675 55.2418 10.6894C55.2157 11.4995 55.1329 12.0743 54.9936 12.414C54.8368 12.4576 54.7105 12.4794 54.6147 12.4794H54.3926C54.349 12.4794 54.2968 12.475 54.2358 12.4663L53.9092 11.0291C53.6217 11.003 53.4562 10.9899 53.4127 10.9899C52.7855 10.9899 52.2847 11.1815 51.9101 11.5648C51.5443 11.948 51.3614 12.5926 51.3614 13.4985C51.3614 14.4043 51.5008 15.0924 51.7795 15.5628C52.0669 16.0332 52.6157 16.2683 53.4257 16.2683C53.809 16.2683 54.41 16.0854 55.2288 15.7196C55.3943 15.9461 55.4814 16.1464 55.4901 16.3206C55.0458 16.5819 54.6103 16.7866 54.1835 16.9347C53.7567 17.0827 53.4519 17.1568 53.2689 17.1568ZM57.9898 7.2924C58.2598 7.2924 58.4515 7.30111 58.5647 7.31853C58.5647 7.47531 58.5386 7.68001 58.4863 7.9326C58.4428 8.17649 58.4123 8.32021 58.3949 8.36376C58.3949 8.55539 58.3861 8.95171 58.3687 9.55271C58.3513 10.1537 58.3426 10.6197 58.3426 10.9507C58.7171 10.7504 59.0873 10.5762 59.4531 10.4281C59.8277 10.28 60.0629 10.206 60.1587 10.206C60.9949 10.206 61.6002 10.415 61.9748 10.8331C62.3493 11.2425 62.5366 11.8696 62.5366 12.7145C62.5366 12.9584 62.5017 14.0908 62.4321 16.1116L63.5296 16.2161C63.5296 16.46 63.4555 16.7213 63.3074 17H60.3024L60.2632 16.5427C60.6639 16.4033 61.0558 16.2988 61.4391 16.2291C61.3868 13.947 61.3389 12.6797 61.2954 12.4271C61.2605 12.1658 61.1996 11.9393 61.1125 11.7477C61.0254 11.5561 60.8947 11.4211 60.7205 11.3427C60.5463 11.2643 60.3155 11.2251 60.028 11.2251C59.4357 11.2251 58.8696 11.3645 58.3295 11.6432L58.2511 16.1116L59.3486 16.2161C59.3486 16.46 59.2746 16.7213 59.1265 17H56.1215L56.0823 16.5427C56.4829 16.4033 56.8749 16.2988 57.2582 16.2291L57.1014 8.32457C56.6223 8.29843 56.2391 8.24617 55.9516 8.16778L56.0039 7.48838C56.4481 7.35773 57.1101 7.2924 57.9898 7.2924ZM69.3154 12.7276L69.25 16.0985C69.6246 16.1246 69.9991 16.1856 70.3737 16.2814L70.3475 16.7387C70.2082 16.8084 69.9556 16.8868 69.5897 16.9739C69.2326 17.0523 68.8799 17.0915 68.5314 17.0915C68.3747 16.7779 68.2876 16.4774 68.2701 16.1899C67.2772 16.8432 66.5803 17.1699 66.1797 17.1699C65.5612 17.1699 65.0648 17.0044 64.6902 16.6734C64.3157 16.3424 64.1284 15.8807 64.1284 15.2884C64.1284 13.9209 64.9646 13.2154 66.637 13.1718C67.6125 13.1457 68.1046 13.1326 68.1133 13.1326L68.1003 12.6884C68.0829 12.0874 67.9696 11.6562 67.7606 11.3949C67.5515 11.1249 67.177 10.9899 66.637 10.9899C66.4105 10.9899 66.1666 11.0422 65.9053 11.1467L65.5917 12.4532C65.5482 12.4619 65.4741 12.4663 65.3696 12.4663L64.8339 12.4271C64.6946 12.0526 64.6205 11.5343 64.6118 10.8723C64.7773 10.7852 65.1562 10.6546 65.7485 10.4804C66.3408 10.2974 66.7197 10.206 66.8852 10.206C67.7736 10.206 68.4008 10.402 68.7666 10.7939C69.1325 11.1859 69.3154 11.8305 69.3154 12.7276ZM66.4671 16.2814C66.7197 16.2814 67.3033 15.9983 68.2179 15.4322L68.1525 13.799C67.5602 13.8512 67.0638 13.8991 66.6631 13.9427C66.2624 13.9862 65.9401 14.1038 65.6962 14.2955C65.4524 14.4784 65.3304 14.7702 65.3304 15.1708C65.3304 15.9112 65.7093 16.2814 66.4671 16.2814ZM75.0211 10.206C75.8573 10.206 76.4627 10.415 76.8372 10.8331C77.2118 11.2425 77.3991 11.8696 77.3991 12.7145C77.3991 12.9584 77.3642 14.0908 77.2945 16.1116L78.392 16.2161C78.392 16.46 78.318 16.7213 78.1699 17H75.1649L75.1257 16.5427C75.5263 16.4033 75.9183 16.2988 76.3016 16.2291C76.2493 13.947 76.2014 12.6797 76.1578 12.4271C76.123 12.1658 76.062 11.9393 75.9749 11.7477C75.8878 11.5561 75.7572 11.4211 75.583 11.3427C75.4088 11.2643 75.1779 11.2251 74.8905 11.2251C74.3156 11.2251 73.7582 11.3645 73.2181 11.6432C73.1659 13.6291 73.131 15.1186 73.1136 16.1116L74.2111 16.2161C74.2111 16.46 74.1371 16.7213 73.989 17H70.9839L70.9447 16.5427C71.3454 16.4033 71.7374 16.2988 72.1206 16.2291C72.0684 14.0167 72.0248 12.3792 71.99 11.3165C71.5109 11.2904 71.1277 11.2382 70.8402 11.1598L70.8925 10.4804C71.3628 10.3497 72.0466 10.2844 72.9437 10.2844C73.0483 10.4412 73.1267 10.6676 73.1789 10.9638C73.5535 10.7634 73.928 10.5892 74.3026 10.4412C74.6858 10.2844 74.9253 10.206 75.0211 10.206ZM79.8012 16.1899L79.6967 11.2643H78.6907L78.6515 10.807C78.7386 10.746 78.9912 10.6328 79.4093 10.4673L80.4806 8.79492C80.6548 8.81234 80.7898 8.85589 80.8857 8.92557L80.8726 10.3628C81.5259 10.3628 82.0615 10.4063 82.4796 10.4934C82.4796 10.7286 82.4056 10.9856 82.2575 11.2643H80.8465C80.829 12.3095 80.8116 13.8948 80.7942 16.0201C81.282 16.0462 81.7698 16.1333 82.2575 16.2814L82.2445 16.7387C82.1225 16.8171 81.8089 16.9085 81.3038 17.0131C80.8073 17.1176 80.3979 17.1699 80.0756 17.1699C80.0321 17.1002 79.9754 16.9521 79.9058 16.7256C79.8361 16.4904 79.8012 16.3119 79.8012 16.1899ZM86.5339 16.2683C86.9171 16.2683 87.5181 16.0854 88.3369 15.7196C88.5024 15.9461 88.5895 16.1464 88.5982 16.3206C88.154 16.5819 87.7185 16.7866 87.2917 16.9347C86.8649 17.0827 86.56 17.1568 86.3771 17.1568C85.3667 17.1568 84.5958 16.8563 84.0645 16.2553C83.5332 15.6456 83.2675 14.7963 83.2675 13.7075C83.2675 12.6187 83.5245 11.7651 84.0384 11.1467C84.561 10.5196 85.3406 10.206 86.3771 10.206C87.1784 10.206 87.7881 10.4934 88.2062 11.0683C88.633 11.6432 88.8464 12.414 88.8464 13.3809C88.7768 13.5028 88.7201 13.5856 88.6766 13.6291L84.4695 13.5638C84.4782 14.4435 84.6307 15.1142 84.9268 15.5759C85.2317 16.0375 85.7674 16.2683 86.5339 16.2683ZM87.6575 12.8191C87.6575 12.2442 87.553 11.8 87.3439 11.4864C87.1349 11.1641 86.7865 11.003 86.2987 11.003C85.8109 11.003 85.3754 11.0944 84.9922 11.2773C84.7308 11.8 84.5653 12.3356 84.4957 12.8844C85.1838 12.8757 86.2377 12.8539 87.6575 12.8191ZM94.2342 10.9507L94.195 8.33763C93.7159 8.3115 93.3327 8.25924 93.0452 8.18085L93.0975 7.50144C93.5417 7.37079 94.1863 7.30546 95.0312 7.30546C95.3012 7.30546 95.4928 7.31417 95.606 7.33159C95.606 7.48838 95.5799 7.69743 95.5276 7.95873C95.4841 8.21133 95.4536 8.3507 95.4362 8.37683L95.3186 16.0985C95.6757 16.1159 96.0546 16.1769 96.4553 16.2814L96.4292 16.7387C95.8282 17.0174 95.2968 17.1568 94.8352 17.1568C94.7394 17.1568 94.6653 17.1524 94.6131 17.1437C94.5434 17.0131 94.4563 16.7126 94.3518 16.2422C93.3501 16.8084 92.6489 17.1132 92.2482 17.1568C91.412 17.1568 90.7849 16.8389 90.3668 16.203C89.9487 15.5672 89.7397 14.7527 89.7397 13.7598C89.7397 12.7581 89.9487 11.9176 90.3668 11.2382C90.7936 10.55 91.4208 10.206 92.2482 10.206C92.8928 10.206 93.5548 10.4542 94.2342 10.9507ZM92.4703 11.0944C91.4512 11.0944 90.9417 11.9306 90.9417 13.603C90.9417 14.2563 91.0462 14.8224 91.2553 15.3015C91.3598 15.5628 91.5122 15.7719 91.7125 15.9286C91.9216 16.0854 92.1611 16.1638 92.4311 16.1638C92.7012 16.1638 93.0147 16.1028 93.3719 15.9809C93.7377 15.859 94.0513 15.7196 94.3126 15.5628L94.2342 11.8392C93.999 11.6388 93.7116 11.4646 93.3719 11.3165C93.0322 11.1685 92.7316 11.0944 92.4703 11.0944Z" fill="black"/>
<path d="M20.3787 6.34669L19.7772 6.53222C20.3966 8.23103 20.6963 10.0373 20.6057 11.9844L20.576 12.625L21.1202 12.2257C22.723 11.0507 23.898 9.53141 24.5924 7.66019L23.992 7.47072C23.4135 9.02947 22.4956 10.3115 21.2539 11.3526C21.2592 9.58222 20.9513 7.91706 20.3788 6.34672L20.3787 6.34669ZM14.6363 6.60062C14.5439 10.0247 16.5448 12.6327 19.896 13.5312C19.9834 10.0906 18.024 7.481 14.6363 6.60062ZM26.0139 11.2998C24.0301 11.2989 22.0877 12.1105 20.4635 13.6777C23.5451 15.2355 26.9864 14.6905 29.5687 12.1914C28.4087 11.5934 27.204 11.3004 26.0138 11.2998L26.0139 11.2998ZM17.4581 13.6572C15.6776 13.6754 14.2637 14.6684 13.497 16.5087C16.292 17.5409 18.642 16.6419 19.6998 14.0908C18.9077 13.7916 18.1548 13.6501 17.4582 13.6572L17.4581 13.6572ZM20.2408 14.2656C18.9589 16.7674 19.9423 18.9228 22.7984 19.9873C24.0812 17.4729 23.1377 15.3212 20.2407 14.2656H20.2408Z" fill="black"/>
</svg>
