<svg width="110" height="25" viewBox="0 0 110 25" fill="none" xmlns="http://www.w3.org/2000/svg">
<rect width="110" height="25" rx="12.2488" fill="#F0F8FF"/>
<path d="M40.8483 8.75572L40.7829 11.9045H42.8473L42.9518 10.9638C43.1957 10.9638 43.457 11.0378 43.7357 11.1859V13.6683L43.2784 13.7075C43.1478 13.333 43.0607 13.0194 43.0171 12.7668H40.7829C40.7655 13.5246 40.7481 14.6439 40.7307 16.1246H43.7227L44.0362 14.8965L44.794 14.9487C44.916 15.4452 44.9769 15.8851 44.9769 16.2683C44.9769 16.6429 44.9682 16.8868 44.9508 17H38.601L38.5618 16.5427C38.9451 16.4033 39.3153 16.3032 39.6724 16.2422C39.6201 12.8452 39.5766 10.3192 39.5417 8.66427C39.3501 8.64685 38.9668 8.54232 38.392 8.3507L38.4573 7.85421H44.7548C44.7722 7.96744 44.7809 8.14165 44.7809 8.37683C44.7809 8.85589 44.72 9.37415 44.598 9.93161C44.4064 9.97516 44.1538 9.99694 43.8402 9.99694L43.5267 8.75572H40.8483ZM47.0461 16.1899L46.9416 11.2643H45.9356L45.8964 10.807C45.9835 10.746 46.2361 10.6328 46.6542 10.4673L47.7255 8.79492C47.8997 8.81234 48.0348 8.85589 48.1306 8.92557L48.1175 10.3628C48.7708 10.3628 49.3065 10.4063 49.7245 10.4934C49.7245 10.7286 49.6505 10.9856 49.5024 11.2643H48.0914C48.074 12.3095 48.0565 13.8948 48.0391 16.0201C48.5269 16.0462 49.0147 16.1333 49.5024 16.2814L49.4894 16.7387C49.3674 16.8171 49.0539 16.9085 48.5487 17.0131C48.0522 17.1176 47.6428 17.1699 47.3205 17.1699C47.277 17.1002 47.2203 16.9521 47.1507 16.7256C47.081 16.4904 47.0461 16.3119 47.0461 16.1899ZM52.2893 7.2924C52.5593 7.2924 52.751 7.30111 52.8642 7.31853C52.8642 7.47531 52.8381 7.68001 52.7858 7.9326C52.7423 8.17649 52.7118 8.32021 52.6944 8.36376C52.6944 8.55539 52.6856 8.95171 52.6682 9.55271C52.6508 10.1537 52.6421 10.6197 52.6421 10.9507C53.0166 10.7504 53.3868 10.5762 53.7527 10.4281C54.1272 10.28 54.3624 10.206 54.4582 10.206C55.2944 10.206 55.8997 10.415 56.2743 10.8331C56.6488 11.2425 56.8361 11.8696 56.8361 12.7145C56.8361 12.9584 56.8012 14.0908 56.7316 16.1116L57.8291 16.2161C57.8291 16.46 57.755 16.7213 57.6069 17H54.6019L54.5627 16.5427C54.9634 16.4033 55.3553 16.2988 55.7386 16.2291C55.6863 13.947 55.6384 12.6797 55.5949 12.4271C55.56 12.1658 55.4991 11.9393 55.412 11.7477C55.3249 11.5561 55.1942 11.4211 55.02 11.3427C54.8458 11.2643 54.615 11.2251 54.3275 11.2251C53.7352 11.2251 53.1691 11.3645 52.629 11.6432L52.5506 16.1116L53.6481 16.2161C53.6481 16.46 53.5741 16.7213 53.426 17H50.421L50.3818 16.5427C50.7824 16.4033 51.1744 16.2988 51.5577 16.2291L51.4009 8.32457C50.9218 8.29843 50.5386 8.24617 50.2511 8.16778L50.3034 7.48838C50.7476 7.35773 51.4096 7.2924 52.2893 7.2924ZM61.6812 16.2683C62.0644 16.2683 62.6654 16.0854 63.4842 15.7196C63.6497 15.9461 63.7368 16.1464 63.7455 16.3206C63.3013 16.5819 62.8658 16.7866 62.439 16.9347C62.0122 17.0827 61.7073 17.1568 61.5244 17.1568C60.514 17.1568 59.7432 16.8563 59.2118 16.2553C58.6805 15.6456 58.4148 14.7963 58.4148 13.7075C58.4148 12.6187 58.6718 11.7651 59.1857 11.1467C59.7083 10.5196 60.4879 10.206 61.5244 10.206C62.3257 10.206 62.9355 10.4934 63.3536 11.0683C63.7804 11.6432 63.9938 12.414 63.9938 13.3809C63.9241 13.5028 63.8675 13.5856 63.8239 13.6291L59.6169 13.5638C59.6256 14.4435 59.778 15.1142 60.0741 15.5759C60.379 16.0375 60.9147 16.2683 61.6812 16.2683ZM62.8048 12.8191C62.8048 12.2442 62.7003 11.8 62.4912 11.4864C62.2822 11.1641 61.9338 11.003 61.446 11.003C60.9582 11.003 60.5227 11.0944 60.1395 11.2773C59.8782 11.8 59.7127 12.3356 59.643 12.8844C60.3311 12.8757 61.385 12.8539 62.8048 12.8191ZM68.8981 11.3035C68.8545 11.2599 68.7587 11.2382 68.6106 11.2382C68.4626 11.2382 68.2404 11.2904 67.9443 11.3949C67.6569 11.4995 67.3955 11.6214 67.1604 11.7608C67.1081 13.6945 67.0733 15.1447 67.0558 16.1116L68.1533 16.2161C68.1533 16.46 68.0793 16.7213 67.9312 17H64.9262L64.887 16.5427C65.2877 16.4033 65.6796 16.2988 66.0629 16.2291C66.0106 14.0167 65.9671 12.3792 65.9322 11.3165C65.4532 11.2904 65.0699 11.2382 64.7825 11.1598L64.8347 10.4804C65.2964 10.3497 65.9801 10.2844 66.886 10.2844C67.0254 10.5021 67.1125 10.7809 67.1473 11.1206C68.149 10.5108 68.7456 10.206 68.9373 10.206C69.1289 10.206 69.351 10.2452 69.6036 10.3236C69.8562 10.3933 70.0435 10.4716 70.1654 10.5588C70.1654 11.4298 70.0827 12.1397 69.9172 12.6884C69.7952 12.7233 69.6515 12.7407 69.486 12.7407C69.3292 12.7407 69.2203 12.7363 69.1594 12.7276L68.8981 11.3035ZM73.9134 16.2683C74.2967 16.2683 74.8977 16.0854 75.7165 15.7196C75.8819 15.9461 75.969 16.1464 75.9778 16.3206C75.5335 16.5819 75.098 16.7866 74.6712 16.9347C74.2444 17.0827 73.9396 17.1568 73.7566 17.1568C72.7462 17.1568 71.9754 16.8563 71.4441 16.2553C70.9127 15.6456 70.6471 14.7963 70.6471 13.7075C70.6471 12.6187 70.904 11.7651 71.4179 11.1467C71.9405 10.5196 72.7201 10.206 73.7566 10.206C74.558 10.206 75.1677 10.4934 75.5858 11.0683C76.0126 11.6432 76.226 12.414 76.226 13.3809C76.1563 13.5028 76.0997 13.5856 76.0562 13.6291L71.8491 13.5638C71.8578 14.4435 72.0102 15.1142 72.3064 15.5759C72.6112 16.0375 73.1469 16.2683 73.9134 16.2683ZM75.037 12.8191C75.037 12.2442 74.9325 11.8 74.7235 11.4864C74.5144 11.1641 74.166 11.003 73.6782 11.003C73.1905 11.003 72.755 11.0944 72.3717 11.2773C72.1104 11.8 71.9449 12.3356 71.8752 12.8844C72.5633 12.8757 73.6173 12.8539 75.037 12.8191ZM82.3715 12.7276L82.3062 16.0985C82.6807 16.1246 83.0553 16.1856 83.4298 16.2814L83.4037 16.7387C83.2643 16.8084 83.0117 16.8868 82.6459 16.9739C82.2888 17.0523 81.936 17.0915 81.5876 17.0915C81.4308 16.7779 81.3437 16.4774 81.3263 16.1899C80.3333 16.8432 79.6365 17.1699 79.2358 17.1699C78.6174 17.1699 78.1209 17.0044 77.7464 16.6734C77.3718 16.3424 77.1846 15.8807 77.1846 15.2884C77.1846 13.9209 78.0207 13.2154 79.6931 13.1718C80.6687 13.1457 81.1608 13.1326 81.1695 13.1326L81.1564 12.6884C81.139 12.0874 81.0258 11.6562 80.8167 11.3949C80.6077 11.1249 80.2331 10.9899 79.6931 10.9899C79.4666 10.9899 79.2228 11.0422 78.9614 11.1467L78.6479 12.4532C78.6043 12.4619 78.5303 12.4663 78.4258 12.4663L77.8901 12.4271C77.7507 12.0526 77.6767 11.5343 77.668 10.8723C77.8335 10.7852 78.2124 10.6546 78.8047 10.4804C79.397 10.2974 79.7759 10.206 79.9414 10.206C80.8298 10.206 81.4569 10.402 81.8228 10.7939C82.1886 11.1859 82.3715 11.8305 82.3715 12.7276ZM79.5233 16.2814C79.7759 16.2814 80.3594 15.9983 81.274 15.4322L81.2087 13.799C80.6164 13.8512 80.1199 13.8991 79.7192 13.9427C79.3186 13.9862 78.9963 14.1038 78.7524 14.2955C78.5085 14.4784 78.3866 14.7702 78.3866 15.1708C78.3866 15.9112 78.7655 16.2814 79.5233 16.2814ZM85.7647 7.2924C86.0347 7.2924 86.2264 7.30111 86.3396 7.31853C86.3396 7.62339 86.283 7.9718 86.1698 8.36376C86.0914 13.5028 86.0522 16.0854 86.0522 16.1116L87.1497 16.2161C87.1497 16.46 87.0756 16.7213 86.9275 17H83.9225L83.8833 16.5427C84.284 16.4033 84.6759 16.2988 85.0592 16.2291L84.9285 8.32457C84.4495 8.29843 84.0662 8.24617 83.7788 8.16778L83.831 7.48838C84.2753 7.35773 84.9198 7.2924 85.7647 7.2924Z" fill="black"/>
<g clip-path="url(#clip0_50_10014)">
<path d="M28.25 4L22.1444 12.5L28.25 21L34.3556 12.5L28.25 4Z" fill="black"/>
</g>
<defs>
<clipPath id="clip0_50_10014">
<rect width="12" height="17" fill="white" transform="translate(22 4)"/>
</clipPath>
</defs>
</svg>
