<svg width="110" height="25" viewBox="0 0 110 25" fill="none" xmlns="http://www.w3.org/2000/svg">
<rect width="110" height="25" rx="12.2488" fill="#191970"/>
<g clip-path="url(#clip0_50_10016)">
<path d="M33.2996 16.1928H31.0846L31.0636 16.1572C31.0716 14.8873 31.5981 13.5884 32.5981 12.5638C33.3456 11.7983 33.9096 10.7905 34.1991 9.78969L32.9126 9.06031L34.1066 8.85828L32.7536 8.1036L34.3801 7.84485C34.2171 6.70016 33.4801 5.85266 31.9661 5.85266C30.4886 6.12172 26.2791 6.20375 24.1016 5.93938C23.8256 5.855 23.5476 5.80578 23.2761 5.79688C23.2741 5.79641 23.2721 5.79594 23.2701 5.79547C23.2711 5.79594 23.2726 5.79641 23.2736 5.79688C22.5656 5.77485 21.9046 6.03172 21.4501 6.67906C20.8186 7.5786 21.4911 9.12266 22.9731 9.12266C23.0566 9.12266 23.1331 9.11844 23.2031 9.11047V9.12125H25.0541C24.7741 10.1792 24.0796 11.3558 23.2756 12.5413C23.2081 12.6406 23.1426 12.7423 23.0791 12.8455L24.1676 13.8908L22.4121 14.1664C21.3911 16.6808 21.5566 19.4919 23.9186 19.4919L24.1631 19.4933V19.4966H26.8376V19.4919H33.8861C36.0111 19.4919 36.3026 16.1923 33.3006 16.1923L33.2996 16.1928ZM27.0201 17.7795C27.0201 17.7659 27.0196 17.7519 27.0191 17.7378C27.0196 17.7519 27.0201 17.7655 27.0201 17.7795ZM23.6496 8.95297C24.0876 8.60328 23.6316 7.77688 23.1071 7.08922H24.9156C25.2181 7.63625 25.2491 8.26766 25.0946 8.95297H23.6496ZM25.0436 16.6034C25.8526 16.3513 26.7696 16.8331 26.9516 17.585C26.9826 17.7134 27.0026 17.8348 27.0126 17.9497C27.0136 17.9375 27.0146 17.9253 27.0151 17.9131C26.9951 18.1845 26.9091 18.4105 26.7711 18.597H26.7551C26.7396 18.6177 26.7236 18.6378 26.7071 18.657L26.7321 18.6467C26.5006 18.9303 26.1456 19.1197 25.7231 19.242H25.2841L25.3056 19.2331C24.8431 19.2331 24.3116 19.1923 24.3116 19.1923C24.9981 19.182 25.2936 18.9097 25.4066 18.5975C24.9176 18.7639 24.3966 18.4644 24.2326 18.0223C24.0111 17.4256 24.4281 16.7952 25.0436 16.6034ZM26.7346 18.6444C26.7471 18.6289 26.7591 18.6134 26.7711 18.598C26.7596 18.6139 26.7471 18.6294 26.7346 18.6444Z" fill="white"/>
</g>
<path d="M49.9897 8.75572L51.3615 16.1116L52.5505 16.2291C52.5505 16.4643 52.4764 16.7213 52.3284 17H49.3233L49.2841 16.5427C49.5454 16.4295 49.8677 16.338 50.251 16.2683L48.853 8.93864L47.1283 16.3729H45.8349L43.4569 8.91251L42.3986 16.1116L43.5092 16.2161C43.5092 16.46 43.4352 16.7213 43.2871 17H40.2821L40.2429 16.5427C40.6261 16.4033 41.0094 16.2988 41.3926 16.2291L42.5424 8.6512C42.011 8.57281 41.5886 8.48135 41.275 8.37683L41.3273 7.85421H44.3715L46.4489 15.0141H46.5012L48.1213 7.85421H51.0349C51.183 8.13294 51.257 8.40296 51.257 8.66427C50.6908 8.72524 50.2684 8.75572 49.9897 8.75572ZM55.403 9.12156C55.1765 9.17382 54.9544 9.19995 54.7367 9.19995C54.5276 9.19995 54.3186 9.18688 54.1095 9.16075C54.0573 8.91686 54.0311 8.67298 54.0311 8.42909C54.0311 8.17649 54.0398 7.98922 54.0573 7.86728C54.2489 7.82372 54.4492 7.80195 54.6583 7.80195C54.876 7.80195 55.1068 7.81066 55.3507 7.82808C55.403 8.05455 55.4291 8.27666 55.4291 8.49442C55.4291 8.70346 55.4204 8.91251 55.403 9.12156ZM53.0251 10.4934C53.7655 10.3628 54.3403 10.2974 54.7497 10.2974C55.1591 10.2974 55.4204 10.3062 55.5337 10.3236C55.5337 10.5326 55.5075 10.7634 55.4553 11.016C55.403 11.2686 55.3725 11.3906 55.3638 11.3819L55.2462 16.1116L56.3437 16.2161C56.3437 16.46 56.2697 16.7213 56.1216 17H53.1165L53.0774 16.5427C53.478 16.4033 53.87 16.2988 54.2532 16.2291C54.201 14.0516 54.1574 12.4184 54.1226 11.3296C53.6174 11.3296 53.2341 11.2773 52.9728 11.1728L53.0251 10.4934ZM57.8758 16.1899L57.7713 11.2643H56.7652L56.726 10.807C56.8132 10.746 57.0657 10.6328 57.4838 10.4673L58.5552 8.79492C58.7294 8.81234 58.8644 8.85589 58.9602 8.92557L58.9472 10.3628C59.6004 10.3628 60.1361 10.4063 60.5542 10.4934C60.5542 10.7286 60.4802 10.9856 60.3321 11.2643H58.921C58.9036 12.3095 58.8862 13.8948 58.8688 16.0201C59.3566 16.0462 59.8443 16.1333 60.3321 16.2814L60.319 16.7387C60.1971 16.8171 59.8835 16.9085 59.3783 17.0131C58.8818 17.1176 58.4725 17.1699 58.1502 17.1699C58.1066 17.1002 58.05 16.9521 57.9803 16.7256C57.9106 16.4904 57.8758 16.3119 57.8758 16.1899ZM63.119 7.2924C63.389 7.2924 63.5806 7.30111 63.6939 7.31853C63.6939 7.47531 63.6677 7.68001 63.6155 7.9326C63.5719 8.17649 63.5414 8.32021 63.524 8.36376C63.524 8.55539 63.5153 8.95171 63.4979 9.55271C63.4805 10.1537 63.4718 10.6197 63.4718 10.9507C63.8463 10.7504 64.2165 10.5762 64.5823 10.4281C64.9569 10.28 65.192 10.206 65.2878 10.206C66.124 10.206 66.7294 10.415 67.1039 10.8331C67.4785 11.2425 67.6658 11.8696 67.6658 12.7145C67.6658 12.9584 67.6309 14.0908 67.5612 16.1116L68.6587 16.2161C68.6587 16.46 68.5847 16.7213 68.4366 17H65.4316L65.3924 16.5427C65.793 16.4033 66.185 16.2988 66.5683 16.2291C66.516 13.947 66.4681 12.6797 66.4245 12.4271C66.3897 12.1658 66.3287 11.9393 66.2416 11.7477C66.1545 11.5561 66.0239 11.4211 65.8497 11.3427C65.6755 11.2643 65.4446 11.2251 65.1572 11.2251C64.5649 11.2251 63.9987 11.3645 63.4587 11.6432L63.3803 16.1116L64.4778 16.2161C64.4778 16.46 64.4038 16.7213 64.2557 17H61.2506L61.2114 16.5427C61.6121 16.4033 62.0041 16.2988 62.3873 16.2291L62.2305 8.32457C61.7515 8.29843 61.3682 8.24617 61.0808 8.16778L61.133 7.48838C61.5773 7.35773 62.2393 7.2924 63.119 7.2924ZM71.544 9.12156C71.3175 9.17382 71.0954 9.19995 70.8777 9.19995C70.6686 9.19995 70.4596 9.18688 70.2505 9.16075C70.1983 8.91686 70.1721 8.67298 70.1721 8.42909C70.1721 8.17649 70.1809 7.98922 70.1983 7.86728C70.3899 7.82372 70.5902 7.80195 70.7993 7.80195C71.017 7.80195 71.2479 7.81066 71.4918 7.82808C71.544 8.05455 71.5701 8.27666 71.5701 8.49442C71.5701 8.70346 71.5614 8.91251 71.544 9.12156ZM69.1661 10.4934C69.9065 10.3628 70.4814 10.2974 70.8907 10.2974C71.3001 10.2974 71.5614 10.3062 71.6747 10.3236C71.6747 10.5326 71.6485 10.7634 71.5963 11.016C71.544 11.2686 71.5135 11.3906 71.5048 11.3819L71.3872 16.1116L72.4847 16.2161C72.4847 16.46 72.4107 16.7213 72.2626 17H69.2576L69.2184 16.5427C69.619 16.4033 70.011 16.2988 70.3943 16.2291C70.342 14.0516 70.2984 12.4184 70.2636 11.3296C69.7584 11.3296 69.3752 11.2773 69.1138 11.1728L69.1661 10.4934ZM76.1595 17.1568C75.1143 17.1568 74.3347 16.865 73.8208 16.2814C73.3069 15.6891 73.05 14.8486 73.05 13.7598C73.05 11.3906 74.1039 10.206 76.2118 10.206C76.5515 10.206 76.9043 10.2582 77.2701 10.3628C77.6359 10.4586 77.9234 10.5675 78.1324 10.6894C78.1063 11.4995 78.0235 12.0743 77.8842 12.414C77.7274 12.4576 77.6011 12.4794 77.5053 12.4794H77.2832C77.2396 12.4794 77.1874 12.475 77.1264 12.4663L76.7998 11.0291C76.5123 11.003 76.3468 10.9899 76.3033 10.9899C75.6761 10.9899 75.1753 11.1815 74.8007 11.5648C74.4349 11.948 74.252 12.5926 74.252 13.4985C74.252 14.4043 74.3914 15.0924 74.6701 15.5628C74.9575 16.0332 75.5063 16.2683 76.3163 16.2683C76.6996 16.2683 77.3006 16.0854 78.1194 15.7196C78.2849 15.9461 78.372 16.1464 78.3807 16.3206C77.9364 16.5819 77.5009 16.7866 77.0741 16.9347C76.6473 17.0827 76.3425 17.1568 76.1595 17.1568ZM84.3036 12.7276L84.2382 16.0985C84.6128 16.1246 84.9873 16.1856 85.3619 16.2814L85.3357 16.7387C85.1964 16.8084 84.9438 16.8868 84.5779 16.9739C84.2208 17.0523 83.868 17.0915 83.5196 17.0915C83.3629 16.7779 83.2757 16.4774 83.2583 16.1899C82.2654 16.8432 81.5685 17.1699 81.1679 17.1699C80.5494 17.1699 80.0529 17.0044 79.6784 16.6734C79.3039 16.3424 79.1166 15.8807 79.1166 15.2884C79.1166 13.9209 79.9528 13.2154 81.6252 13.1718C82.6007 13.1457 83.0928 13.1326 83.1015 13.1326L83.0885 12.6884C83.0711 12.0874 82.9578 11.6562 82.7488 11.3949C82.5397 11.1249 82.1652 10.9899 81.6252 10.9899C81.3987 10.9899 81.1548 11.0422 80.8935 11.1467L80.5799 12.4532C80.5364 12.4619 80.4623 12.4663 80.3578 12.4663L79.8221 12.4271C79.6828 12.0526 79.6087 11.5343 79.6 10.8723C79.7655 10.7852 80.1444 10.6546 80.7367 10.4804C81.329 10.2974 81.7079 10.206 81.8734 10.206C82.7618 10.206 83.389 10.402 83.7548 10.7939C84.1206 11.1859 84.3036 11.8305 84.3036 12.7276ZM81.4553 16.2814C81.7079 16.2814 82.2915 15.9983 83.2061 15.4322L83.1407 13.799C82.5484 13.8512 82.052 13.8991 81.6513 13.9427C81.2506 13.9862 80.9283 14.1038 80.6844 14.2955C80.4406 14.4784 80.3186 14.7702 80.3186 15.1708C80.3186 15.9112 80.6975 16.2814 81.4553 16.2814ZM87.6968 7.2924C87.9668 7.2924 88.1584 7.30111 88.2716 7.31853C88.2716 7.62339 88.215 7.9718 88.1018 8.36376C88.0234 13.5028 87.9842 16.0854 87.9842 16.1116L89.0817 16.2161C89.0817 16.46 89.0077 16.7213 88.8596 17H85.8545L85.8153 16.5427C86.216 16.4033 86.608 16.2988 86.9912 16.2291L86.8606 8.32457C86.3815 8.29843 85.9983 8.24617 85.7108 8.16778L85.7631 7.48838C86.2073 7.35773 86.8519 7.2924 87.6968 7.2924Z" fill="white"/>
<defs>
<clipPath id="clip0_50_10016">
<rect width="16" height="15" fill="white" transform="translate(19.9531 5)"/>
</clipPath>
</defs>
</svg>
