<svg width="110" height="25" viewBox="0 0 110 25" fill="none" xmlns="http://www.w3.org/2000/svg">
<rect width="110" height="25" rx="12.2488" fill="#8B0000"/>
<path d="M48.485 7.85421C49.5912 7.85421 50.4099 8.03713 50.9412 8.40296C51.4813 8.76008 51.7513 9.39593 51.7513 10.3105C51.7513 11.2251 51.4856 11.9524 50.9543 12.4924C50.423 13.0238 49.565 13.2894 48.3804 13.2894H47.2829L47.2437 16.1246L48.2628 16.2161C48.2628 16.46 48.1888 16.7213 48.0407 17H45.101L45.0618 16.5558C45.4276 16.4164 45.8022 16.3119 46.1854 16.2422C46.1332 12.8452 46.0896 10.3192 46.0548 8.66427C45.8196 8.62072 45.4364 8.51619 44.905 8.3507L44.9704 7.85421H48.485ZM48.2498 12.4402C48.9989 12.4315 49.5694 12.2442 49.9613 11.8784C50.3533 11.5038 50.5493 11.0117 50.5493 10.402C50.5493 9.79225 50.3577 9.3698 49.9744 9.13462C49.5912 8.89073 48.9771 8.76879 48.1322 8.76879C47.9754 8.76879 47.7097 8.77314 47.3352 8.78186C47.3352 8.79057 47.3221 10.0144 47.296 12.4532L48.2498 12.4402ZM56.3352 11.3035C56.2916 11.2599 56.1958 11.2382 56.0478 11.2382C55.8997 11.2382 55.6776 11.2904 55.3814 11.3949C55.094 11.4995 54.8327 11.6214 54.5975 11.7608C54.5452 13.6945 54.5104 15.1447 54.493 16.1116L55.5905 16.2161C55.5905 16.46 55.5164 16.7213 55.3684 17H52.3633L52.3241 16.5427C52.7248 16.4033 53.1168 16.2988 53.5 16.2291C53.4477 14.0167 53.4042 12.3792 53.3693 11.3165C52.8903 11.2904 52.507 11.2382 52.2196 11.1598L52.2719 10.4804C52.7335 10.3497 53.4173 10.2844 54.3231 10.2844C54.4625 10.5021 54.5496 10.7809 54.5844 11.1206C55.5861 10.5108 56.1828 10.206 56.3744 10.206C56.566 10.206 56.7881 10.2452 57.0407 10.3236C57.2933 10.3933 57.4806 10.4716 57.6025 10.5588C57.6025 11.4298 57.5198 12.1397 57.3543 12.6884C57.2324 12.7233 57.0886 12.7407 56.9231 12.7407C56.7664 12.7407 56.6575 12.7363 56.5965 12.7276L56.3352 11.3035ZM60.3837 9.12156C60.1572 9.17382 59.9351 9.19995 59.7174 9.19995C59.5083 9.19995 59.2993 9.18688 59.0902 9.16075C59.038 8.91686 59.0118 8.67298 59.0118 8.42909C59.0118 8.17649 59.0206 7.98922 59.038 7.86728C59.2296 7.82372 59.4299 7.80195 59.639 7.80195C59.8567 7.80195 60.0876 7.81066 60.3315 7.82808C60.3837 8.05455 60.4098 8.27666 60.4098 8.49442C60.4098 8.70346 60.4011 8.91251 60.3837 9.12156ZM58.0058 10.4934C58.7462 10.3628 59.3211 10.2974 59.7304 10.2974C60.1398 10.2974 60.4011 10.3062 60.5144 10.3236C60.5144 10.5326 60.4882 10.7634 60.436 11.016C60.3837 11.2686 60.3532 11.3906 60.3445 11.3819L60.2269 16.1116L61.3244 16.2161C61.3244 16.46 61.2504 16.7213 61.1023 17H58.0973L58.0581 16.5427C58.4587 16.4033 58.8507 16.2988 59.234 16.2291C59.1817 14.0516 59.1381 12.4184 59.1033 11.3296C58.5981 11.3296 58.2149 11.2773 57.9535 11.1728L58.0058 10.4934ZM68.2264 11.6693C68.2612 11.948 68.2787 12.2703 68.2787 12.6362C68.2787 13.002 68.2438 14.1605 68.1741 16.1116L69.2716 16.2161C69.2716 16.46 69.1976 16.7213 69.0495 17H66.0445L66.0053 16.5427C66.406 16.4033 66.7979 16.2988 67.1812 16.2291C67.1289 13.9122 67.081 12.6231 67.0375 12.3618C67.0026 12.1005 66.9416 11.8827 66.8545 11.7085C66.7674 11.5256 66.6324 11.3993 66.4495 11.3296C66.2666 11.2599 65.9879 11.2251 65.6133 11.2251C65.2475 11.2251 64.7641 11.3645 64.1631 11.6432C64.1108 13.6291 64.076 15.1186 64.0585 16.1116L65.156 16.2161C65.156 16.46 65.082 16.7213 64.9339 17H61.9289L61.8897 16.5427C62.2904 16.4033 62.6823 16.2988 63.0656 16.2291C63.0569 15.602 63.0351 14.7179 63.0002 13.5769C62.9654 12.4271 62.9436 11.6737 62.9349 11.3165C62.4558 11.2904 62.0726 11.2382 61.7852 11.1598L61.8374 10.4804C62.3078 10.3497 62.9915 10.2844 63.8887 10.2844C64.0106 10.5021 64.089 10.7286 64.1239 10.9638C64.5071 10.7634 64.886 10.5892 65.2606 10.4412C65.6351 10.2844 65.8703 10.206 65.9661 10.206C66.9329 10.206 67.608 10.5021 67.9912 11.0944C68.3919 10.8767 68.8056 10.6763 69.2324 10.4934C69.668 10.3018 69.9293 10.206 70.0164 10.206C70.809 10.206 71.4013 10.402 71.7933 10.7939C72.1939 11.1772 72.3943 11.8087 72.3943 12.6884C72.3943 12.9497 72.3594 14.0908 72.2898 16.1116L73.3872 16.2161C73.3872 16.46 73.3132 16.7213 73.1651 17H70.1601L70.1209 16.5427C70.5216 16.4033 70.9135 16.2988 71.2968 16.2291C71.2619 14.8529 71.2315 13.812 71.2053 13.1065C71.1792 12.401 71.079 11.9132 70.9048 11.6432C70.7306 11.3645 70.3822 11.2251 69.8596 11.2251C69.337 11.2251 68.7926 11.3732 68.2264 11.6693ZM79.0763 12.7276L79.011 16.0985C79.3855 16.1246 79.76 16.1856 80.1346 16.2814L80.1085 16.7387C79.9691 16.8084 79.7165 16.8868 79.3507 16.9739C78.9935 17.0523 78.6408 17.0915 78.2924 17.0915C78.1356 16.7779 78.0485 16.4774 78.0311 16.1899C77.0381 16.8432 76.3413 17.1699 75.9406 17.1699C75.3222 17.1699 74.8257 17.0044 74.4511 16.6734C74.0766 16.3424 73.8893 15.8807 73.8893 15.2884C73.8893 13.9209 74.7255 13.2154 76.3979 13.1718C77.3734 13.1457 77.8656 13.1326 77.8743 13.1326L77.8612 12.6884C77.8438 12.0874 77.7305 11.6562 77.5215 11.3949C77.3125 11.1249 76.9379 10.9899 76.3979 10.9899C76.1714 10.9899 75.9275 11.0422 75.6662 11.1467L75.3526 12.4532C75.3091 12.4619 75.2351 12.4663 75.1305 12.4663L74.5949 12.4271C74.4555 12.0526 74.3814 11.5343 74.3727 10.8723C74.5382 10.7852 74.9171 10.6546 75.5094 10.4804C76.1017 10.2974 76.4806 10.206 76.6461 10.206C77.5346 10.206 78.1617 10.402 78.5275 10.7939C78.8934 11.1859 79.0763 11.8305 79.0763 12.7276ZM76.228 16.2814C76.4806 16.2814 77.0642 15.9983 77.9788 15.4322L77.9135 13.799C77.3212 13.8512 76.8247 13.8991 76.424 13.9427C76.0233 13.9862 75.7011 14.1038 75.4572 14.2955C75.2133 14.4784 75.0913 14.7702 75.0913 15.1708C75.0913 15.9112 75.4702 16.2814 76.228 16.2814ZM82.4695 7.2924C82.7395 7.2924 82.9311 7.30111 83.0444 7.31853C83.0444 7.62339 82.9878 7.9718 82.8745 8.36376C82.7961 13.5028 82.7569 16.0854 82.7569 16.1116L83.8544 16.2161C83.8544 16.46 83.7804 16.7213 83.6323 17H80.6273L80.5881 16.5427C80.9887 16.4033 81.3807 16.2988 81.764 16.2291L81.6333 8.32457C81.1542 8.29843 80.771 8.24617 80.4835 8.16778L80.5358 7.48838C80.98 7.35773 81.6246 7.2924 82.4695 7.2924Z" fill="white"/>
<g clip-path="url(#clip0_50_10013)">
<path d="M33 11.5625C30.6735 11.5625 27.375 15.159 27.375 17.4292C27.375 18.4517 28.1604 19.0625 29.4768 19.0625C30.9076 19.0625 31.8524 18.3277 33 18.3277C34.1575 18.3277 35.105 19.0625 36.5232 19.0625C37.8396 19.0625 38.625 18.4517 38.625 17.4292C38.625 15.159 35.3265 11.5625 33 11.5625ZM28.6852 11.1931C28.3805 10.1779 27.4418 9.52051 26.5887 9.72441C25.7355 9.92832 25.2911 10.9165 25.5958 11.9316C25.9005 12.9468 26.8392 13.6042 27.6923 13.4003C28.5454 13.1964 28.9898 12.2082 28.6852 11.1931ZM31.1672 10.5843C32.0736 10.3458 32.5271 9.12119 32.1803 7.84912C31.8334 6.57705 30.8174 5.73945 29.9109 5.97793C29.0045 6.21641 28.551 7.44102 28.8979 8.71309C29.2447 9.98516 30.261 10.823 31.1672 10.5843ZM39.411 9.72471C38.5579 9.5208 37.6195 10.1782 37.3146 11.1934C37.0099 12.2085 37.4543 13.1967 38.3074 13.4006C39.1605 13.6045 40.0989 12.9471 40.4039 11.9319C40.7086 10.9168 40.2642 9.92861 39.411 9.72471ZM34.8328 10.5843C35.7393 10.8228 36.7553 9.98516 37.1021 8.71309C37.449 7.44102 36.9955 6.2167 36.0891 5.97793C35.1826 5.73916 34.1666 6.57705 33.8197 7.84912C33.4729 9.12119 33.9264 10.3458 34.8328 10.5843Z" fill="white"/>
</g>
<defs>
<clipPath id="clip0_50_10013">
<rect width="15" height="15" fill="white" transform="translate(25.5 5)"/>
</clipPath>
</defs>
</svg>
