<svg width="110" height="25" viewBox="0 0 110 25" fill="none" xmlns="http://www.w3.org/2000/svg">
<rect width="110" height="25" rx="12.2488" fill="#708090"/>
<path d="M59.2418 17.1699C56.681 17.1699 55.4006 15.5628 55.4006 12.3487C55.4006 10.8244 55.7098 9.66595 56.3282 8.87331C56.9554 8.08068 57.9527 7.68436 59.3202 7.68436C60.4177 7.68436 61.3932 7.98922 62.2469 8.59894C62.2469 9.08672 62.1859 9.70514 62.0639 10.4542C61.942 10.4804 61.6894 10.4934 61.3061 10.4934L60.9142 8.87331C60.2958 8.76008 59.7993 8.70346 59.4247 8.70346C58.7366 8.70346 58.1312 8.79928 57.6086 8.9909L57.3604 9.08236C57.3081 9.16946 57.2428 9.30012 57.1644 9.47432C57.086 9.63982 56.9815 9.99258 56.8508 10.5326C56.7289 11.0727 56.6679 11.6258 56.6679 12.1919C56.6679 13.4201 56.8683 14.3956 57.2689 15.1186C57.6783 15.8415 58.3272 16.203 59.2157 16.203C59.8515 16.203 60.3306 16.1377 60.6529 16.007C60.74 15.9635 60.8663 15.8982 61.0318 15.811L61.3061 14.2432L62.0639 14.2824C62.1946 15.1796 62.2599 15.9069 62.2599 16.4643C62.077 16.6037 61.6807 16.7561 61.071 16.9216C60.47 17.0871 59.8602 17.1699 59.2418 17.1699ZM64.9314 7.2924C65.2014 7.2924 65.393 7.30111 65.5062 7.31853C65.5062 7.62339 65.4496 7.9718 65.3364 8.36376C65.258 13.5028 65.2188 16.0854 65.2188 16.1116L66.3163 16.2161C66.3163 16.46 66.2423 16.7213 66.0942 17H63.0891L63.0499 16.5427C63.4506 16.4033 63.8426 16.2988 64.2258 16.2291L64.0952 8.32457C63.6161 8.29843 63.2329 8.24617 62.9454 8.16778L62.9977 7.48838C63.4419 7.35773 64.0865 7.2924 64.9314 7.2924ZM69.2112 9.12156C68.9847 9.17382 68.7626 9.19995 68.5448 9.19995C68.3358 9.19995 68.1267 9.18688 67.9177 9.16075C67.8654 8.91686 67.8393 8.67298 67.8393 8.42909C67.8393 8.17649 67.848 7.98922 67.8654 7.86728C68.0571 7.82372 68.2574 7.80195 68.4664 7.80195C68.6842 7.80195 68.915 7.81066 69.1589 7.82808C69.2112 8.05455 69.2373 8.27666 69.2373 8.49442C69.2373 8.70346 69.2286 8.91251 69.2112 9.12156ZM66.8333 10.4934C67.5736 10.3628 68.1485 10.2974 68.5579 10.2974C68.9673 10.2974 69.2286 10.3062 69.3418 10.3236C69.3418 10.5326 69.3157 10.7634 69.2634 11.016C69.2112 11.2686 69.1807 11.3906 69.172 11.3819L69.0544 16.1116L70.1519 16.2161C70.1519 16.46 70.0778 16.7213 69.9298 17H66.9247L66.8855 16.5427C67.2862 16.4033 67.6782 16.2988 68.0614 16.2291C68.0092 14.0516 67.9656 12.4184 67.9308 11.3296C67.4256 11.3296 67.0423 11.2773 66.781 11.1728L66.8333 10.4934ZM75.081 9.3306L74.8719 9.31754H74.8197L74.4147 8.03713C74.223 8.00229 74.0532 7.98486 73.9051 7.98486C73.4783 7.98486 73.1778 8.15036 73.0036 8.48135C72.8381 8.81234 72.7553 9.39157 72.7553 10.2191V10.3758H72.9513C73.5523 10.3758 74.014 10.4107 74.3363 10.4804C74.345 10.4804 74.3624 10.4847 74.3885 10.4934C74.3798 10.746 74.3058 11.003 74.1664 11.2643H72.677V16.1116H72.8729C73.2126 16.1116 73.5131 16.129 73.7744 16.1638C74.0358 16.1987 74.1751 16.2248 74.1925 16.2422C74.1925 16.4687 74.1185 16.7213 73.9704 17H70.5473L70.5081 16.5427C70.9088 16.4033 71.2746 16.2988 71.6056 16.2291V11.2643H70.5996L70.5604 10.807C70.8739 10.6851 71.2223 10.5892 71.6056 10.5196V9.98387C71.6056 8.99961 71.7885 8.28101 72.1543 7.82808C72.3024 7.65387 72.5115 7.51015 72.7815 7.39692C73.0515 7.27498 73.3651 7.21401 73.7222 7.21401C74.419 7.21401 75.081 7.36644 75.7081 7.67129C75.7081 8.21133 75.6559 8.75137 75.5513 9.29141C75.4555 9.31754 75.2987 9.3306 75.081 9.3306ZM79.7298 9.3306L79.5208 9.31754H79.4685L79.0635 8.03713C78.8718 8.00229 78.702 7.98486 78.5539 7.98486C78.1271 7.98486 77.8266 8.15036 77.6524 8.48135C77.4869 8.81234 77.4042 9.39157 77.4042 10.2191V10.3758H77.6001C78.2011 10.3758 78.6628 10.4107 78.9851 10.4804C78.9938 10.4804 79.0112 10.4847 79.0373 10.4934C79.0286 10.746 78.9546 11.003 78.8152 11.2643H77.3258V16.1116H77.5217C77.8614 16.1116 78.162 16.129 78.4233 16.1638C78.6846 16.1987 78.8239 16.2248 78.8414 16.2422C78.8414 16.4687 78.7673 16.7213 78.6192 17H75.1961L75.1569 16.5427C75.5576 16.4033 75.9234 16.2988 76.2544 16.2291V11.2643H75.2484L75.2092 10.807C75.5227 10.6851 75.8712 10.5892 76.2544 10.5196V9.98387C76.2544 8.99961 76.4373 8.28101 76.8031 7.82808C76.9512 7.65387 77.1603 7.51015 77.4303 7.39692C77.7003 7.27498 78.0139 7.21401 78.371 7.21401C79.0678 7.21401 79.7298 7.36644 80.3569 7.67129C80.3569 8.21133 80.3047 8.75137 80.2002 9.29141C80.1043 9.31754 79.9476 9.3306 79.7298 9.3306Z" fill="white"/>
<path fill-rule="evenodd" clip-rule="evenodd" d="M30.4796 18.4423C30.3846 18.5979 30.4965 18.7974 30.6787 18.7974H50.3217C50.4902 18.7974 50.6031 18.6242 50.5353 18.4701L44.4864 4.7227C44.4032 4.53342 44.133 4.538 44.0562 4.73001L41.4396 11.2714C41.4087 11.3488 41.4213 11.4367 41.4728 11.5023L43.43 13.9933C43.828 14.4999 43.7401 15.2333 43.2334 15.6314C42.7267 16.0294 41.9933 15.9415 41.5953 15.4348L36.584 9.05685C36.4835 8.92899 36.2862 8.94054 36.2014 9.07937L30.4796 18.4423Z" fill="white"/>
</svg>
