<svg width="110" height="25" viewBox="0 0 110 25" fill="none" xmlns="http://www.w3.org/2000/svg">
<rect width="110" height="25" rx="12.2488" fill="#FFF967"/>
<path d="M56.192 12.2181C56.192 14.1866 55.7434 15.5236 54.8463 16.2291C54.4717 16.5253 54.0667 16.73 53.6312 16.8432C53.1957 16.9477 52.6252 17 51.9196 17H48.601L48.5618 16.5427C48.5967 16.5166 48.7752 16.46 49.0975 16.3729C49.4198 16.2858 49.6114 16.2422 49.6724 16.2422C49.6201 12.8452 49.5766 10.3192 49.5417 8.66427C49.1498 8.612 48.7665 8.50748 48.392 8.3507C48.4094 8.05455 48.4312 7.88905 48.4573 7.85421H51.7498C52.6556 7.85421 53.3699 7.93696 53.8925 8.10245C54.4238 8.26795 54.8855 8.57281 55.2774 9.01703C55.8872 9.68772 56.192 10.7547 56.192 12.2181ZM54.9247 12.3226C54.9247 11.1467 54.7026 10.2626 54.2583 9.6703C53.8228 9.06929 53.0868 8.76879 52.0503 8.76879H50.7176C50.6828 10.3715 50.6392 12.8191 50.587 16.1116H51.9588C53.1521 16.1116 53.9448 15.8459 54.3367 15.3146C54.7287 14.7745 54.9247 13.7772 54.9247 12.3226ZM60.3421 16.2683C60.7253 16.2683 61.3264 16.0854 62.1451 15.7196C62.3106 15.9461 62.3977 16.1464 62.4064 16.3206C61.9622 16.5819 61.5267 16.7866 61.0999 16.9347C60.6731 17.0827 60.3682 17.1568 60.1853 17.1568C59.1749 17.1568 58.4041 16.8563 57.8727 16.2553C57.3414 15.6456 57.0757 14.7963 57.0757 13.7075C57.0757 12.6187 57.3327 11.7651 57.8466 11.1467C58.3692 10.5196 59.1488 10.206 60.1853 10.206C60.9867 10.206 61.5964 10.4934 62.0145 11.0683C62.4413 11.6432 62.6547 12.414 62.6547 13.3809C62.585 13.5028 62.5284 13.5856 62.4848 13.6291L58.2778 13.5638C58.2865 14.4435 58.4389 15.1142 58.735 15.5759C59.0399 16.0375 59.5756 16.2683 60.3421 16.2683ZM61.4657 12.8191C61.4657 12.2442 61.3612 11.8 61.1521 11.4864C60.9431 11.1641 60.5947 11.003 60.1069 11.003C59.6191 11.003 59.1836 11.0944 58.8004 11.2773C58.5391 11.8 58.3736 12.3356 58.3039 12.8844C58.992 12.8757 60.0459 12.8539 61.4657 12.8191ZM64.6323 16.1638C64.9372 16.2945 65.3074 16.3598 65.7429 16.3598C66.1871 16.3598 66.5355 16.277 66.7881 16.1116C67.0407 15.9461 67.167 15.7196 67.167 15.4322C67.167 15.1447 67.0494 14.9052 66.8142 14.7136C66.5791 14.5219 66.2916 14.3521 65.9519 14.204C65.6122 14.0559 65.2725 13.8991 64.9328 13.7336C64.5931 13.5682 64.3057 13.3504 64.0705 13.0804C63.8353 12.8104 63.7177 12.4968 63.7177 12.1397C63.7177 11.5387 63.9181 11.0683 64.3188 10.7286C64.7194 10.3802 65.2725 10.206 65.9781 10.206C66.6923 10.206 67.363 10.3671 67.9901 10.6894C67.9988 10.7765 68.0032 11.0117 68.0032 11.3949C68.0032 11.7695 67.964 12.0918 67.8856 12.3618C67.6766 12.4315 67.4283 12.4663 67.1409 12.4663L66.7097 11.1336C66.5181 11.0378 66.2568 10.9899 65.9258 10.9899C65.6035 10.9899 65.3466 11.077 65.1549 11.2512C64.9633 11.4167 64.8675 11.6301 64.8675 11.8914C64.8675 12.144 64.9851 12.3661 65.2203 12.5578C65.4642 12.7494 65.7559 12.9236 66.0956 13.0804C66.4353 13.2285 66.775 13.3896 67.1148 13.5638C67.4545 13.7293 67.7419 13.9514 67.9771 14.2301C68.221 14.5002 68.3429 14.8137 68.3429 15.1708C68.3429 15.798 68.099 16.2901 67.6112 16.6472C67.1322 16.9956 66.5399 17.1699 65.8343 17.1699C65.4511 17.1699 65.0417 17.1089 64.6062 16.9869C64.1707 16.8563 63.8048 16.6908 63.5087 16.4904C63.5087 15.9069 63.561 15.3886 63.6655 14.9357C63.8658 14.9008 64.1358 14.8834 64.4755 14.8834L64.6323 16.1638ZM72.6126 16.2683C72.9959 16.2683 73.5969 16.0854 74.4156 15.7196C74.5811 15.9461 74.6682 16.1464 74.6769 16.3206C74.2327 16.5819 73.7972 16.7866 73.3704 16.9347C72.9436 17.0827 72.6387 17.1568 72.4558 17.1568C71.4454 17.1568 70.6746 16.8563 70.1432 16.2553C69.6119 15.6456 69.3463 14.7963 69.3463 13.7075C69.3463 12.6187 69.6032 11.7651 70.1171 11.1467C70.6397 10.5196 71.4193 10.206 72.4558 10.206C73.2572 10.206 73.8669 10.4934 74.285 11.0683C74.7118 11.6432 74.9252 12.414 74.9252 13.3809C74.8555 13.5028 74.7989 13.5856 74.7553 13.6291L70.5483 13.5638C70.557 14.4435 70.7094 15.1142 71.0056 15.5759C71.3104 16.0375 71.8461 16.2683 72.6126 16.2683ZM73.7362 12.8191C73.7362 12.2442 73.6317 11.8 73.4227 11.4864C73.2136 11.1641 72.8652 11.003 72.3774 11.003C71.8897 11.003 71.4541 11.0944 71.0709 11.2773C70.8096 11.8 70.6441 12.3356 70.5744 12.8844C71.2625 12.8757 72.3165 12.8539 73.7362 12.8191ZM79.8295 11.3035C79.7859 11.2599 79.6901 11.2382 79.5421 11.2382C79.394 11.2382 79.1719 11.2904 78.8757 11.3949C78.5883 11.4995 78.327 11.6214 78.0918 11.7608C78.0395 13.6945 78.0047 15.1447 77.9873 16.1116L79.0848 16.2161C79.0848 16.46 79.0107 16.7213 78.8626 17H75.8576L75.8184 16.5427C76.2191 16.4033 76.611 16.2988 76.9943 16.2291C76.942 14.0167 76.8985 12.3792 76.8636 11.3165C76.3846 11.2904 76.0013 11.2382 75.7139 11.1598L75.7661 10.4804C76.2278 10.3497 76.9115 10.2844 77.8174 10.2844C77.9568 10.5021 78.0439 10.7809 78.0787 11.1206C79.0804 10.5108 79.6771 10.206 79.8687 10.206C80.0603 10.206 80.2824 10.2452 80.535 10.3236C80.7876 10.3933 80.9749 10.4716 81.0968 10.5588C81.0968 11.4298 81.0141 12.1397 80.8486 12.6884C80.7266 12.7233 80.5829 12.7407 80.4174 12.7407C80.2606 12.7407 80.1518 12.7363 80.0908 12.7276L79.8295 11.3035ZM82.4931 16.1899L82.3885 11.2643H81.3825L81.3433 10.807C81.4304 10.746 81.683 10.6328 82.1011 10.4673L83.1725 8.79492C83.3467 8.81234 83.4817 8.85589 83.5775 8.92557L83.5644 10.3628C84.2177 10.3628 84.7534 10.4063 85.1715 10.4934C85.1715 10.7286 85.0974 10.9856 84.9494 11.2643H83.5383C83.5209 12.3095 83.5035 13.8948 83.486 16.0201C83.9738 16.0462 84.4616 16.1333 84.9494 16.2814L84.9363 16.7387C84.8144 16.8171 84.5008 16.9085 83.9956 17.0131C83.4991 17.1176 83.0897 17.1699 82.7674 17.1699C82.7239 17.1002 82.6673 16.9521 82.5976 16.7256C82.5279 16.4904 82.4931 16.3119 82.4931 16.1899Z" fill="black"/>
<g clip-path="url(#clip0_50_10057)">
<path d="M43.357 15.4507C43.3084 14.6764 42.6711 14.2304 42.0547 13.799C41.8076 13.6259 41.3956 13.3377 41.3213 13.1839C41.0895 12.3512 40.9625 12.2721 39.9951 11.6698C39.7142 11.4949 39.3646 11.2772 38.9022 10.9764C37.6414 10.1565 36.6674 9.04007 35.8848 8.14298C35.4085 7.59709 34.9972 7.12568 34.6147 6.82468C34.0427 6.37461 33.5248 6.30997 33.1016 6.61075C32.4752 7.05601 31.0754 9.20807 30.1459 10.3344C28.8695 11.8813 26.5741 13.8934 25.4926 14.2923C24.2877 14.7365 24.1755 15.9562 26.2101 16.3254C29.8555 16.9872 29.0466 18.1294 32.6027 18.4211C34.8241 18.6033 40.7619 17.5224 42.7502 16.4933C42.952 16.4157 43.0884 16.3039 43.191 16.1489C43.3163 15.9595 43.3737 15.7181 43.357 15.4507ZM32.6186 15.2303C32.4487 15.2305 32.3108 15.0379 32.3106 14.8C32.3105 14.5621 32.448 14.369 32.618 14.3688C32.7879 14.3686 32.9258 14.5612 32.9259 14.7991C32.9261 15.0369 32.7885 15.23 32.6186 15.2303ZM33.5297 13.894C33.3787 13.8942 33.2561 13.7231 33.2559 13.5115C33.2558 13.3 33.378 13.1285 33.5291 13.1283C33.6802 13.1281 33.8027 13.2992 33.8029 13.5108C33.803 13.7223 33.6808 13.8938 33.5297 13.894ZM34.1466 15.9937C33.9578 15.994 33.8046 15.78 33.8045 15.5156C33.8042 15.2513 33.9571 15.0368 34.1459 15.0366C34.3348 15.0362 34.488 15.2503 34.4881 15.5146C34.4883 15.779 34.3355 15.9934 34.1466 15.9937ZM35.9807 12.2077C35.1209 10.8881 34.5948 8.91856 34.107 7.69126C34.1476 7.71576 34.1892 7.74442 34.2317 7.77789C34.5549 8.03218 34.9417 8.47559 35.3898 8.98911C36.2064 9.92514 37.2227 11.09 38.573 11.9682C39.0413 12.2728 39.3941 12.4924 39.6775 12.6689C40.094 12.9282 40.3453 13.0848 40.4482 13.1967C40.4976 13.2502 40.5127 13.2905 40.5959 13.5902C40.7373 14.0998 41.1859 14.4137 41.7053 14.7772C41.9034 14.9159 42.2455 15.1634 42.4491 15.3649C42.4956 15.4108 42.479 15.5131 42.4227 15.5247C42.2196 15.5664 41.8623 15.5969 41.2873 15.5446C39.96 15.4241 37.7025 14.8505 35.9807 12.2077ZM29.5463 18.6414C29.5463 18.9452 29.3703 19.1915 29.1534 19.1915C28.9364 19.1915 28.7605 18.9452 28.7605 18.6414C28.7605 18.3377 28.9364 18.0914 29.1534 18.0914C29.3703 18.0914 29.5463 18.3377 29.5463 18.6414ZM28.15 17.7795C28.15 18.0473 27.9948 18.2645 27.8035 18.2645C27.6122 18.2645 27.457 18.0473 27.457 17.7795C27.457 17.5116 27.6122 17.2944 27.8035 17.2944C27.9948 17.2944 28.15 17.5116 28.15 17.7795ZM26.5828 18.8925C26.5828 19.1341 26.4429 19.33 26.2703 19.33C26.0977 19.33 25.9578 19.1341 25.9578 18.8925C25.9578 18.6509 26.0977 18.455 26.2703 18.455C26.4429 18.455 26.5828 18.6509 26.5828 18.8925ZM41.1289 18.4413C41.1289 18.6904 40.9846 18.8925 40.8066 18.8925C40.6287 18.8925 40.4844 18.6904 40.4844 18.4413C40.4844 18.1921 40.6287 17.9901 40.8066 17.9901C40.9846 17.9901 41.1289 18.1921 41.1289 18.4413Z" fill="black"/>
</g>
<defs>
<clipPath id="clip0_50_10057">
<rect width="20" height="14" fill="white" transform="translate(24 6)"/>
</clipPath>
</defs>
</svg>
