<svg width="110" height="25" viewBox="0 0 110 25" fill="none" xmlns="http://www.w3.org/2000/svg">
<rect width="110" height="25" rx="12.2488" fill="#006400"/>
<path d="M50.1849 12.9105L50.1196 16.1246L51.2171 16.2161C51.2171 16.46 51.143 16.7213 50.9949 17H47.9899L47.9507 16.5427C48.334 16.4033 48.7041 16.3032 49.0613 16.2422C49.009 12.8452 48.9654 10.3192 48.9306 8.66427C48.739 8.64685 48.3557 8.54232 47.7808 8.3507L47.8462 7.85421H54.1437C54.1611 7.96744 54.1698 8.14165 54.1698 8.37683C54.1698 8.84718 54.1089 9.3698 53.9869 9.94468C53.7953 9.97952 53.5427 9.99694 53.2291 9.99694L52.9156 8.75572H50.2371C50.2197 9.48739 50.2023 10.5849 50.1849 12.0482H52.2492L52.3537 11.1075C52.5976 11.1075 52.8589 11.1815 53.1377 11.3296V13.812L52.6804 13.8512C52.5497 13.4767 52.4626 13.1631 52.4191 12.9105H50.1849ZM57.9759 16.3729C58.7076 16.3729 59.1997 16.1464 59.4523 15.6935C59.7136 15.2318 59.8443 14.5785 59.8443 13.7336C59.8443 12.3923 59.5481 11.5517 58.9558 11.212C58.7119 11.0727 58.3679 11.003 57.9237 11.003C57.4882 11.003 57.0744 11.0944 56.6825 11.2773C56.334 11.948 56.1598 12.7276 56.1598 13.6161C56.1598 14.4697 56.2731 15.1273 56.4995 15.5889C56.7608 16.1116 57.253 16.3729 57.9759 16.3729ZM54.9578 13.7336C54.9578 12.6274 55.2104 11.7651 55.7156 11.1467C56.2208 10.5196 57.0004 10.206 58.0543 10.206C59.1083 10.206 59.8704 10.4934 60.3408 11.0683C60.8111 11.6345 61.0463 12.475 61.0463 13.5899C61.0463 14.7048 60.7937 15.5802 60.2885 16.2161C59.792 16.8519 59.0342 17.1699 58.0151 17.1699C56.996 17.1699 56.2295 16.8737 55.7156 16.2814C55.2104 15.6891 54.9578 14.8399 54.9578 13.7336ZM65.8378 11.3035C65.7943 11.2599 65.6984 11.2382 65.5504 11.2382C65.4023 11.2382 65.1802 11.2904 64.884 11.3949C64.5966 11.4995 64.3353 11.6214 64.1001 11.7608C64.0478 13.6945 64.013 15.1447 63.9956 16.1116L65.0931 16.2161C65.0931 16.46 65.019 16.7213 64.871 17H61.8659L61.8267 16.5427C62.2274 16.4033 62.6194 16.2988 63.0026 16.2291C62.9504 14.0167 62.9068 12.3792 62.872 11.3165C62.3929 11.2904 62.0096 11.2382 61.7222 11.1598L61.7745 10.4804C62.2361 10.3497 62.9199 10.2844 63.8257 10.2844C63.9651 10.5021 64.0522 10.7809 64.087 11.1206C65.0887 10.5108 65.6854 10.206 65.877 10.206C66.0686 10.206 66.2907 10.2452 66.5433 10.3236C66.7959 10.3933 66.9832 10.4716 67.1052 10.5588C67.1052 11.4298 67.0224 12.1397 66.8569 12.6884C66.735 12.7233 66.5912 12.7407 66.4258 12.7407C66.269 12.7407 66.1601 12.7363 66.0991 12.7276L65.8378 11.3035ZM70.8532 16.2683C71.2364 16.2683 71.8374 16.0854 72.6562 15.7196C72.8217 15.9461 72.9088 16.1464 72.9175 16.3206C72.4733 16.5819 72.0378 16.7866 71.611 16.9347C71.1842 17.0827 70.8793 17.1568 70.6964 17.1568C69.686 17.1568 68.9151 16.8563 68.3838 16.2553C67.8525 15.6456 67.5868 14.7963 67.5868 13.7075C67.5868 12.6187 67.8438 11.7651 68.3577 11.1467C68.8803 10.5196 69.6599 10.206 70.6964 10.206C71.4977 10.206 72.1074 10.4934 72.5255 11.0683C72.9523 11.6432 73.1657 12.414 73.1657 13.3809C73.0961 13.5028 73.0394 13.5856 72.9959 13.6291L68.7888 13.5638C68.7975 14.4435 68.95 15.1142 69.2461 15.5759C69.551 16.0375 70.0867 16.2683 70.8532 16.2683ZM71.9768 12.8191C71.9768 12.2442 71.8723 11.8 71.6632 11.4864C71.4542 11.1641 71.1058 11.003 70.618 11.003C70.1302 11.003 69.6947 11.0944 69.3114 11.2773C69.0501 11.8 68.8846 12.3356 68.815 12.8844C69.5031 12.8757 70.557 12.8539 71.9768 12.8191ZM75.1434 16.1638C75.4483 16.2945 75.8184 16.3598 76.254 16.3598C76.6982 16.3598 77.0466 16.277 77.2992 16.1116C77.5518 15.9461 77.6781 15.7196 77.6781 15.4322C77.6781 15.1447 77.5605 14.9052 77.3253 14.7136C77.0901 14.5219 76.8027 14.3521 76.463 14.204C76.1233 14.0559 75.7836 13.8991 75.4439 13.7336C75.1042 13.5682 74.8168 13.3504 74.5816 13.0804C74.3464 12.8104 74.2288 12.4968 74.2288 12.1397C74.2288 11.5387 74.4292 11.0683 74.8298 10.7286C75.2305 10.3802 75.7836 10.206 76.4891 10.206C77.2034 10.206 77.8741 10.3671 78.5012 10.6894C78.5099 10.7765 78.5143 11.0117 78.5143 11.3949C78.5143 11.7695 78.4751 12.0918 78.3967 12.3618C78.1876 12.4315 77.9394 12.4663 77.652 12.4663L77.2208 11.1336C77.0292 11.0378 76.7679 10.9899 76.4369 10.9899C76.1146 10.9899 75.8576 11.077 75.666 11.2512C75.4744 11.4167 75.3786 11.6301 75.3786 11.8914C75.3786 12.144 75.4962 12.3661 75.7313 12.5578C75.9752 12.7494 76.267 12.9236 76.6067 13.0804C76.9464 13.2285 77.2861 13.3896 77.6258 13.5638C77.9655 13.7293 78.253 13.9514 78.4881 14.2301C78.732 14.5002 78.854 14.8137 78.854 15.1708C78.854 15.798 78.6101 16.2901 78.1223 16.6472C77.6432 16.9956 77.0509 17.1699 76.3454 17.1699C75.9622 17.1699 75.5528 17.1089 75.1173 16.9869C74.6817 16.8563 74.3159 16.6908 74.0198 16.4904C74.0198 15.9069 74.072 15.3886 74.1766 14.9357C74.3769 14.9008 74.6469 14.8834 74.9866 14.8834L75.1434 16.1638ZM80.7719 16.1899L80.6674 11.2643H79.6613L79.6222 10.807C79.7093 10.746 79.9619 10.6328 80.3799 10.4673L81.4513 8.79492C81.6255 8.81234 81.7605 8.85589 81.8563 8.92557L81.8433 10.3628C82.4965 10.3628 83.0322 10.4063 83.4503 10.4934C83.4503 10.7286 83.3763 10.9856 83.2282 11.2643H81.8171C81.7997 12.3095 81.7823 13.8948 81.7649 16.0201C82.2527 16.0462 82.7404 16.1333 83.2282 16.2814L83.2151 16.7387C83.0932 16.8171 82.7796 16.9085 82.2744 17.0131C81.7779 17.1176 81.3686 17.1699 81.0463 17.1699C81.0027 17.1002 80.9461 16.9521 80.8764 16.7256C80.8067 16.4904 80.7719 16.3119 80.7719 16.1899Z" fill="white"/>
<g clip-path="url(#clip0_50_10046)">
<path d="M40.125 17.9375V15.0625H43.3889L41.3333 12.8625H42.6944L40.6111 10.6438H41.9722L39.5069 8.0125L37.75 9.8875L39.2847 11.5563H37.7569L40.0486 13.9938H35.7431V15.0563H38.8681V17.8063C37.7639 17.7063 36.5278 17.6375 35.1875 17.625V13.4938H38.8681L36.5764 11.0563H38.1042L35.7431 8.49375H37.2708L34.4931 5.55625L31.7153 8.49375H33.2431L30.8819 10.9938H32.4792L30.1181 13.4938H33.7986V17.625C32.4653 17.6375 31.2222 17.7 30.1181 17.8V15.0625H33.2431V14H28.9444L31.3056 11.5H29.7083L31.2569 9.88125L29.5069 8.01875L27.0694 10.625H28.3889L26.3056 12.875H27.6944L25.6111 15.0625H28.875V17.9375C26.8611 18.1875 25.6111 18.5625 25.6111 19H43.3889C43.3889 18.5688 42.1181 18.1875 40.125 17.9375Z" fill="white"/>
</g>
<defs>
<clipPath id="clip0_50_10046">
<rect width="17.7778" height="16" fill="white" transform="translate(25.6111 4)"/>
</clipPath>
</defs>
</svg>
