<svg width="110" height="25" viewBox="0 0 110 25" fill="none" xmlns="http://www.w3.org/2000/svg">
<rect width="110" height="25" rx="12.2488" fill="#9ED1FF"/>
<path d="M49.1025 17.1699C47.9354 17.1699 47.0034 16.7692 46.3065 15.9678C45.6097 15.1665 45.2613 13.9819 45.2613 12.414C45.2613 10.8375 45.5618 9.65724 46.1628 8.87331C46.7725 8.08068 47.7176 7.68436 48.998 7.68436C50.2871 7.68436 51.3716 8.00664 52.2513 8.6512C52.2513 9.09543 52.1903 9.6224 52.0684 10.2321C51.8768 10.267 51.6242 10.2844 51.3106 10.2844L51.0232 8.93864C50.5267 8.77314 49.917 8.6904 49.194 8.6904C48.7149 8.6904 48.0573 8.82105 47.2211 9.08236C47.1689 9.17817 47.1035 9.31318 47.0251 9.48739C46.9467 9.65288 46.8422 10.01 46.7116 10.5588C46.5896 11.0988 46.5287 11.6432 46.5287 12.1919C46.5287 14.866 47.3953 16.203 49.1287 16.203C50.0432 16.203 50.7488 16.0375 51.2453 15.7065C51.2801 14.609 51.3019 13.7859 51.3106 13.2372L50.0432 12.9236L50.0824 12.4663H53.0875C53.2356 12.745 53.3096 13.0063 53.3096 13.2502C52.9699 13.3025 52.6041 13.3373 52.2121 13.3547C52.2644 14.8181 52.2905 15.8285 52.2905 16.3859C52.0727 16.534 51.6372 16.7039 50.984 16.8955C50.3394 17.0784 49.7123 17.1699 49.1025 17.1699ZM55.6342 7.2924C55.9042 7.2924 56.0958 7.30111 56.2091 7.31853C56.2091 7.62339 56.1525 7.9718 56.0392 8.36376C55.9608 13.5028 55.9216 16.0854 55.9216 16.1116L57.0191 16.2161C57.0191 16.46 56.9451 16.7213 56.797 17H53.792L53.7528 16.5427C54.1535 16.4033 54.5454 16.2988 54.9287 16.2291L54.798 8.32457C54.3189 8.29843 53.9357 8.24617 53.6483 8.16778L53.7005 7.48838C54.1447 7.35773 54.7893 7.2924 55.6342 7.2924ZM62.8145 12.7276L62.7492 16.0985C63.1238 16.1246 63.4983 16.1856 63.8728 16.2814L63.8467 16.7387C63.7073 16.8084 63.4547 16.8868 63.0889 16.9739C62.7318 17.0523 62.379 17.0915 62.0306 17.0915C61.8738 16.7779 61.7867 16.4774 61.7693 16.1899C60.7763 16.8432 60.0795 17.1699 59.6788 17.1699C59.0604 17.1699 58.5639 17.0044 58.1894 16.6734C57.8148 16.3424 57.6276 15.8807 57.6276 15.2884C57.6276 13.9209 58.4638 13.2154 60.1361 13.1718C61.1117 13.1457 61.6038 13.1326 61.6125 13.1326L61.5995 12.6884C61.582 12.0874 61.4688 11.6562 61.2598 11.3949C61.0507 11.1249 60.6762 10.9899 60.1361 10.9899C59.9097 10.9899 59.6658 11.0422 59.4045 11.1467L59.0909 12.4532C59.0473 12.4619 58.9733 12.4663 58.8688 12.4663L58.3331 12.4271C58.1937 12.0526 58.1197 11.5343 58.111 10.8723C58.2765 10.7852 58.6554 10.6546 59.2477 10.4804C59.84 10.2974 60.2189 10.206 60.3844 10.206C61.2728 10.206 61.9 10.402 62.2658 10.7939C62.6316 11.1859 62.8145 11.8305 62.8145 12.7276ZM59.9663 16.2814C60.2189 16.2814 60.8025 15.9983 61.717 15.4322L61.6517 13.799C61.0594 13.8512 60.5629 13.8991 60.1623 13.9427C59.7616 13.9862 59.4393 14.1038 59.1954 14.2955C58.9515 14.4784 58.8296 14.7702 58.8296 15.1708C58.8296 15.9112 59.2085 16.2814 59.9663 16.2814ZM67.5535 17.1568C66.5082 17.1568 65.7287 16.865 65.2148 16.2814C64.7009 15.6891 64.4439 14.8486 64.4439 13.7598C64.4439 11.3906 65.4979 10.206 67.6057 10.206C67.9454 10.206 68.2982 10.2582 68.664 10.3628C69.0299 10.4586 69.3173 10.5675 69.5264 10.6894C69.5002 11.4995 69.4175 12.0743 69.2781 12.414C69.1213 12.4576 68.995 12.4794 68.8992 12.4794H68.6771C68.6336 12.4794 68.5813 12.475 68.5203 12.4663L68.1937 11.0291C67.9062 11.003 67.7408 10.9899 67.6972 10.9899C67.0701 10.9899 66.5692 11.1815 66.1947 11.5648C65.8288 11.948 65.6459 12.5926 65.6459 13.4985C65.6459 14.4043 65.7853 15.0924 66.064 15.5628C66.3515 16.0332 66.9002 16.2683 67.7103 16.2683C68.0935 16.2683 68.6945 16.0854 69.5133 15.7196C69.6788 15.9461 69.7659 16.1464 69.7746 16.3206C69.3304 16.5819 68.8949 16.7866 68.4681 16.9347C68.0413 17.0827 67.7364 17.1568 67.5535 17.1568ZM72.797 9.12156C72.5705 9.17382 72.3484 9.19995 72.1306 9.19995C71.9216 9.19995 71.7125 9.18688 71.5035 9.16075C71.4512 8.91686 71.4251 8.67298 71.4251 8.42909C71.4251 8.17649 71.4338 7.98922 71.4512 7.86728C71.6429 7.82372 71.8432 7.80195 72.0522 7.80195C72.27 7.80195 72.5008 7.81066 72.7447 7.82808C72.797 8.05455 72.8231 8.27666 72.8231 8.49442C72.8231 8.70346 72.8144 8.91251 72.797 9.12156ZM70.4191 10.4934C71.1594 10.3628 71.7343 10.2974 72.1437 10.2974C72.5531 10.2974 72.8144 10.3062 72.9276 10.3236C72.9276 10.5326 72.9015 10.7634 72.8492 11.016C72.797 11.2686 72.7665 11.3906 72.7578 11.3819L72.6402 16.1116L73.7377 16.2161C73.7377 16.46 73.6636 16.7213 73.5156 17H70.5105L70.4713 16.5427C70.872 16.4033 71.264 16.2988 71.6472 16.2291C71.595 14.0516 71.5514 12.4184 71.5166 11.3296C71.0114 11.3296 70.6281 11.2773 70.3668 11.1728L70.4191 10.4934ZM79.5552 12.7276L79.4899 16.0985C79.8645 16.1246 80.239 16.1856 80.6135 16.2814L80.5874 16.7387C80.448 16.8084 80.1954 16.8868 79.8296 16.9739C79.4725 17.0523 79.1197 17.0915 78.7713 17.0915C78.6145 16.7779 78.5274 16.4774 78.51 16.1899C77.517 16.8432 76.8202 17.1699 76.4195 17.1699C75.8011 17.1699 75.3046 17.0044 74.9301 16.6734C74.5555 16.3424 74.3683 15.8807 74.3683 15.2884C74.3683 13.9209 75.2045 13.2154 76.8768 13.1718C77.8524 13.1457 78.3445 13.1326 78.3532 13.1326L78.3402 12.6884C78.3227 12.0874 78.2095 11.6562 78.0005 11.3949C77.7914 11.1249 77.4169 10.9899 76.8768 10.9899C76.6504 10.9899 76.4065 11.0422 76.1452 11.1467L75.8316 12.4532C75.788 12.4619 75.714 12.4663 75.6095 12.4663L75.0738 12.4271C74.9344 12.0526 74.8604 11.5343 74.8517 10.8723C75.0172 10.7852 75.3961 10.6546 75.9884 10.4804C76.5807 10.2974 76.9596 10.206 77.1251 10.206C78.0135 10.206 78.6407 10.402 79.0065 10.7939C79.3723 11.1859 79.5552 11.8305 79.5552 12.7276ZM76.707 16.2814C76.9596 16.2814 77.5432 15.9983 78.4577 15.4322L78.3924 13.799C77.8001 13.8512 77.3036 13.8991 76.903 13.9427C76.5023 13.9862 76.18 14.1038 75.9361 14.2955C75.6922 14.4784 75.5703 14.7702 75.5703 15.1708C75.5703 15.9112 75.9492 16.2814 76.707 16.2814ZM82.9484 7.2924C83.2185 7.2924 83.4101 7.30111 83.5233 7.31853C83.5233 7.62339 83.4667 7.9718 83.3535 8.36376C83.2751 13.5028 83.2359 16.0854 83.2359 16.1116L84.3334 16.2161C84.3334 16.46 84.2593 16.7213 84.1113 17H81.1062L81.067 16.5427C81.4677 16.4033 81.8597 16.2988 82.2429 16.2291L82.1123 8.32457C81.6332 8.29843 81.2499 8.24617 80.9625 8.16778L81.0148 7.48838C81.459 7.35773 82.1035 7.2924 82.9484 7.2924Z" fill="white"/>
<g clip-path="url(#clip0_50_10059)">
<path d="M40 12.5H38.95L39.45 11.8C39.6 11.55 39.55 11.25 39.3 11.1C39.05 10.95 38.75 11 38.6 11.25L37.75 12.5H36.8L36.95 12.2C37.05 11.95 36.95 11.65 36.7 11.55C36.45 11.45 36.15 11.55 36.05 11.8L35.7 12.5H35.5V11.85C35.5 11.7 35.4 11.55 35.3 11.45L36.9 9.85C37.1 9.65 37.1 9.35 36.9 9.15C36.7 8.95 36.4 8.95 36.2 9.15L34.45 10.9V10.95L33.55 10.45V10.35L34.25 10C34.5 9.9 34.6 9.6 34.5 9.35C34.4 9.1 34.1 9 33.85 9.1L33.5 9.2V8.25L34.8 7.4C35.05 7.25 35.1 6.95 34.95 6.7C34.8 6.45 34.5 6.4 34.25 6.55L33.55 7.05V6C33.55 5.7 33.35 5.5 33.05 5.5C32.75 5.5 32.55 5.7 32.55 6V7.05L31.85 6.55C31.6 6.4 31.3 6.45 31.15 6.7C31 6.95 31.05 7.25 31.3 7.4L32.5 8.25V9.2L32.2 9.05C31.95 8.95 31.65 9.05 31.55 9.3C31.45 9.55 31.55 9.85 31.8 9.95L32.5 10.3V10.4L31.6 10.9V10.85L29.8 9.1C29.6 8.9 29.3 8.9 29.1 9.1C28.9 9.3 28.9 9.6 29.1 9.8L30.7 11.4C30.6 11.5 30.5 11.7 30.5 11.85V12.5H30.3L29.95 11.8C29.85 11.55 29.55 11.45 29.3 11.55C29.05 11.65 28.95 11.95 29.05 12.2L29.2 12.5H28.25L27.4 11.2C27.25 10.95 26.95 10.9 26.7 11.05C26.45 11.2 26.4 11.5 26.55 11.75L27.05 12.45H26C25.7 12.45 25.5 12.65 25.5 12.95C25.5 13.25 25.7 13.45 26 13.45H27.05L26.55 14.15C26.4 14.4 26.45 14.7 26.7 14.85C26.8 14.95 26.9 15 27 15C27.15 15 27.3 14.9 27.4 14.8L28.25 13.5H29.2L29.05 13.8C28.95 14.05 29.05 14.35 29.3 14.45C29.35 14.5 29.45 14.5 29.5 14.5C29.7 14.5 29.85 14.4 29.95 14.2L30.3 13.5H30.5V14.15C30.5 14.3 30.6 14.45 30.7 14.55L29.1 16.15C28.9 16.35 28.9 16.65 29.1 16.85C29.2 16.95 29.35 17 29.45 17C29.55 17 29.7 16.95 29.8 16.85L31.55 15.1V15.05L32.45 15.55V15.65L31.75 16C31.5 16.1 31.4 16.4 31.5 16.65C31.6 16.9 31.9 17 32.15 16.9L32.45 16.75V17.7L31.15 18.55C30.9 18.7 30.85 19 31 19.25C31.15 19.5 31.45 19.55 31.7 19.4L32.4 18.9V20C32.4 20.3 32.6 20.5 32.9 20.5C33.2 20.5 33.4 20.3 33.4 20V18.95L34.1 19.45C34.2 19.5 34.3 19.55 34.4 19.55C34.55 19.55 34.7 19.45 34.8 19.35C34.95 19.1 34.9 18.8 34.65 18.65L33.5 17.75V16.8L33.8 16.95C33.85 17 33.95 17 34 17C34.2 17 34.35 16.9 34.45 16.7C34.55 16.45 34.45 16.15 34.2 16.05L33.5 15.7V15.6L34.4 15.1V15.15L36.15 16.9C36.25 17 36.4 17.05 36.5 17.05C36.6 17.05 36.75 17 36.85 16.9C37.05 16.7 37.05 16.4 36.85 16.2L35.25 14.6C35.4 14.5 35.45 14.35 35.45 14.2V13.5H35.65L36 14.2C36.1 14.4 36.25 14.5 36.45 14.5C36.5 14.5 36.6 14.5 36.65 14.45C36.9 14.35 37 14.05 36.9 13.8L36.8 13.5H37.75L38.6 14.8C38.7 14.95 38.85 15 39 15C39.1 15 39.2 14.95 39.3 14.9C39.55 14.75 39.6 14.45 39.45 14.2L38.95 13.5H40C40.3 13.5 40.5 13.3 40.5 13C40.5 12.7 40.3 12.5 40 12.5Z" fill="white"/>
</g>
<defs>
<clipPath id="clip0_50_10059">
<rect width="16" height="16" fill="white" transform="translate(25 5)"/>
</clipPath>
</defs>
</svg>
