<svg width="110" height="25" viewBox="0 0 110 25" fill="none" xmlns="http://www.w3.org/2000/svg">
<rect width="110" height="25" rx="12.2488" fill="#4CD4FF"/>
<path d="M53.7786 15.6281L55.5032 8.62507C55.1548 8.55539 54.7628 8.45086 54.3273 8.3115L54.3665 7.85421H57.6329C57.781 8.13294 57.855 8.39425 57.855 8.63814C57.3759 8.66427 56.9578 8.6904 56.6007 8.71653L54.3273 17H53.0992L50.8519 9.3306L48.8137 17H47.4549L45.1162 8.62507C44.7678 8.55539 44.3758 8.45086 43.9403 8.3115L43.9795 7.85421H47.3765C47.5246 8.13294 47.5986 8.39425 47.5986 8.63814C47.1718 8.66427 46.7799 8.6904 46.4228 8.71653L48.0821 15.6281H48.1343C48.4131 14.4261 48.7876 12.9759 49.258 11.2773C49.737 9.57885 50.0549 8.44215 50.2117 7.86728H51.6228L53.7263 15.6281H53.7786ZM63.5096 12.7276L63.4443 16.0985C63.8189 16.1246 64.1934 16.1856 64.5679 16.2814L64.5418 16.7387C64.4024 16.8084 64.1498 16.8868 63.784 16.9739C63.4269 17.0523 63.0741 17.0915 62.7257 17.0915C62.5689 16.7779 62.4818 16.4774 62.4644 16.1899C61.4714 16.8432 60.7746 17.1699 60.3739 17.1699C59.7555 17.1699 59.259 17.0044 58.8845 16.6734C58.5099 16.3424 58.3227 15.8807 58.3227 15.2884C58.3227 13.9209 59.1589 13.2154 60.8312 13.1718C61.8068 13.1457 62.2989 13.1326 62.3076 13.1326L62.2946 12.6884C62.2771 12.0874 62.1639 11.6562 61.9549 11.3949C61.7458 11.1249 61.3713 10.9899 60.8312 10.9899C60.6048 10.9899 60.3609 11.0422 60.0996 11.1467L59.786 12.4532C59.7424 12.4619 59.6684 12.4663 59.5639 12.4663L59.0282 12.4271C58.8888 12.0526 58.8148 11.5343 58.8061 10.8723C58.9716 10.7852 59.3505 10.6546 59.9428 10.4804C60.5351 10.2974 60.914 10.206 61.0795 10.206C61.9679 10.206 62.5951 10.402 62.9609 10.7939C63.3267 11.1859 63.5096 11.8305 63.5096 12.7276ZM60.6614 16.2814C60.914 16.2814 61.4976 15.9983 62.4121 15.4322L62.3468 13.799C61.7545 13.8512 61.258 13.8991 60.8574 13.9427C60.4567 13.9862 60.1344 14.1038 59.8905 14.2955C59.6466 14.4784 59.5247 14.7702 59.5247 15.1708C59.5247 15.9112 59.9036 16.2814 60.6614 16.2814ZM66.1059 16.1899L66.0013 11.2643H64.9953L64.9561 10.807C65.0432 10.746 65.2958 10.6328 65.7139 10.4673L66.7853 8.79492C66.9595 8.81234 67.0945 8.85589 67.1903 8.92557L67.1772 10.3628C67.8305 10.3628 68.3662 10.4063 68.7843 10.4934C68.7843 10.7286 68.7102 10.9856 68.5621 11.2643H67.1511C67.1337 12.3095 67.1162 13.8948 67.0988 16.0201C67.5866 16.0462 68.0744 16.1333 68.5621 16.2814L68.5491 16.7387C68.4271 16.8171 68.1136 16.9085 67.6084 17.0131C67.1119 17.1176 66.7025 17.1699 66.3802 17.1699C66.3367 17.1002 66.2801 16.9521 66.2104 16.7256C66.1407 16.4904 66.1059 16.3119 66.1059 16.1899ZM72.8385 16.2683C73.2217 16.2683 73.8228 16.0854 74.6415 15.7196C74.807 15.9461 74.8941 16.1464 74.9028 16.3206C74.4586 16.5819 74.0231 16.7866 73.5963 16.9347C73.1695 17.0827 72.8646 17.1568 72.6817 17.1568C71.6713 17.1568 70.9005 16.8563 70.3691 16.2553C69.8378 15.6456 69.5721 14.7963 69.5721 13.7075C69.5721 12.6187 69.8291 11.7651 70.343 11.1467C70.8656 10.5196 71.6452 10.206 72.6817 10.206C73.4831 10.206 74.0928 10.4934 74.5109 11.0683C74.9377 11.6432 75.1511 12.414 75.1511 13.3809C75.0814 13.5028 75.0248 13.5856 74.9812 13.6291L70.7742 13.5638C70.7829 14.4435 70.9353 15.1142 71.2314 15.5759C71.5363 16.0375 72.072 16.2683 72.8385 16.2683ZM73.9621 12.8191C73.9621 12.2442 73.8576 11.8 73.6485 11.4864C73.4395 11.1641 73.0911 11.003 72.6033 11.003C72.1155 11.003 71.68 11.0944 71.2968 11.2773C71.0355 11.8 70.87 12.3356 70.8003 12.8844C71.4884 12.8757 72.5423 12.8539 73.9621 12.8191ZM80.0554 11.3035C80.0118 11.2599 79.916 11.2382 79.7679 11.2382C79.6199 11.2382 79.3977 11.2904 79.1016 11.3949C78.8142 11.4995 78.5529 11.6214 78.3177 11.7608C78.2654 13.6945 78.2306 15.1447 78.2131 16.1116L79.3106 16.2161C79.3106 16.46 79.2366 16.7213 79.0885 17H76.0835L76.0443 16.5427C76.445 16.4033 76.8369 16.2988 77.2202 16.2291C77.1679 14.0167 77.1244 12.3792 77.0895 11.3165C76.6105 11.2904 76.2272 11.2382 75.9398 11.1598L75.992 10.4804C76.4537 10.3497 77.1374 10.2844 78.0433 10.2844C78.1827 10.5021 78.2698 10.7809 78.3046 11.1206C79.3063 10.5108 79.9029 10.206 80.0946 10.206C80.2862 10.206 80.5083 10.2452 80.7609 10.3236C81.0135 10.3933 81.2008 10.4716 81.3227 10.5588C81.3227 11.4298 81.24 12.1397 81.0745 12.6884C80.9525 12.7233 80.8088 12.7407 80.6433 12.7407C80.4865 12.7407 80.3777 12.7363 80.3167 12.7276L80.0554 11.3035Z" fill="white"/>
<g clip-path="url(#clip0_50_10058)">
<path d="M28.321 15.632C28.321 16.22 28.457 16.7847 28.729 17.326C29.001 17.8673 29.3807 18.334 29.868 18.726C30.3553 19.118 30.922 19.4307 31.568 19.664C32.214 19.8973 32.8997 20.0093 33.625 20C34.5883 20 35.478 19.804 36.294 19.412C37.11 19.02 37.756 18.4927 38.232 17.83C38.708 17.1673 38.946 16.4347 38.946 15.632C38.946 15.184 38.759 14.5447 38.385 13.714C38.011 12.8833 37.569 12.0387 37.059 11.18C36.549 10.3213 36.0277 9.49533 35.495 8.702C34.9623 7.90867 34.5203 7.26 34.169 6.756L33.625 6C33.4777 6.196 33.285 6.462 33.047 6.798C32.809 7.134 32.384 7.75933 31.772 8.674C31.16 9.58867 30.6217 10.438 30.157 11.222C29.6923 12.006 29.2673 12.8227 28.882 13.672C28.4967 14.5213 28.3097 15.1747 28.321 15.632ZM30.446 15.632C30.446 15.5387 30.463 15.408 30.497 15.24C30.633 15.8467 30.9957 16.3553 31.585 16.766C32.1743 17.1767 32.8543 17.382 33.625 17.382C34.3957 17.382 35.0757 17.1767 35.665 16.766C36.2543 16.3553 36.617 15.8467 36.753 15.24C36.7983 15.4173 36.821 15.548 36.821 15.632C36.821 16.36 36.5093 16.976 35.886 17.48C35.2627 17.984 34.509 18.2407 33.625 18.25C32.741 18.2593 31.9873 18.0027 31.364 17.48C30.7407 16.9573 30.4347 16.3413 30.446 15.632Z" fill="white"/>
</g>
<defs>
<clipPath id="clip0_50_10058">
<rect width="11" height="14" fill="white" transform="translate(28.125 6)"/>
</clipPath>
</defs>
</svg>
