<svg width="81" height="120" viewBox="0 0 81 120" fill="none" xmlns="http://www.w3.org/2000/svg">
<circle cy="60" r="60" fill="#142C14" fill-opacity="0.5"/>
<path d="M74.7931 34.6897H15.2069C11.8279 34.6897 9 37.5163 9 40.8966V79.3793C9 82.7596 11.8279 85.5862 15.2069 85.5862H25.5L33.8276 94V85.5862H74.7931C78.1721 85.5862 81 82.7596 81 79.3793V40.8966C81 37.5163 78.1721 34.6897 74.7931 34.6897Z" fill="#88C057"/>
<path d="M72.3104 34.6897V30.7086C72.3104 28.1451 70.1653 26 67.6018 26H22.3982C19.8348 26 17.6897 28.1451 17.6897 30.7086V34.6897H72.3104Z" fill="#659C35"/>
<path d="M28.8621 64.4641C30.9189 64.4641 32.5862 62.7968 32.5862 60.74C32.5862 58.6832 30.9189 57.0159 28.8621 57.0159C26.8053 57.0159 25.1379 58.6832 25.1379 60.74C25.1379 62.7968 26.8053 64.4641 28.8621 64.4641Z" fill="white"/>
<path d="M45 64.4641C47.0568 64.4641 48.7242 62.7968 48.7242 60.74C48.7242 58.6832 47.0568 57.0159 45 57.0159C42.9432 57.0159 41.2759 58.6832 41.2759 60.74C41.2759 62.7968 42.9432 64.4641 45 64.4641Z" fill="white"/>
<path d="M61.138 64.4641C63.1947 64.4641 64.8621 62.7968 64.8621 60.74C64.8621 58.6832 63.1947 57.0159 61.138 57.0159C59.0812 57.0159 57.4138 58.6832 57.4138 60.74C57.4138 62.7968 59.0812 64.4641 61.138 64.4641Z" fill="white"/>
</svg>
