<svg width="81" height="120" viewBox="0 0 81 120" fill="none" xmlns="http://www.w3.org/2000/svg">
<ellipse cx="81.8392" cy="60" rx="59.1608" ry="60" transform="rotate(-180 81.8392 60)" fill="#142C14" fill-opacity="0.5"/>
<path d="M18.2572 72.9356C6.39971 56.3849 0.873291 26.8733 0.873291 26.8733L34.0199 9L67.1666 26.8733C67.1666 26.8733 62.3794 56.3851 51.1731 72.936L18.2572 72.9356Z" fill="#F6D86E"/>
<g opacity="0.3">
<path d="M53.4876 19.4791L8.63385 53.9543C10.4388 58.7011 12.5697 63.4999 15.0363 67.8232L67.1665 26.8552L53.4876 19.4791Z" fill="#664400"/>
</g>
<path d="M26.7296 73.549C26.4068 73.549 26.0823 73.4382 25.8177 73.2112C19.9103 68.1489 14.7912 59.4857 10.6027 47.4621C7.50949 38.582 6.14022 31.2767 6.08356 30.97C5.9421 30.206 6.44556 29.4718 7.20792 29.3298C7.97046 29.188 8.70324 29.6924 8.84489 30.4564C8.89885 30.7479 14.4003 59.724 27.6427 71.0719C28.2321 71.5768 28.3016 72.4653 27.7975 73.056C27.5199 73.3819 27.126 73.549 26.7296 73.549Z" fill="#FFEB99"/>
<path opacity="0.3" d="M60.228 23.1319C58.3502 31.6918 54.6379 45.9481 48.7664 57.4544C46.6711 61.5606 42.4733 64.1589 37.8715 64.1589L13.0433 64.1587C14.6211 67.3005 16.3579 70.2845 18.2574 72.9358L51.1731 72.936C62.3796 56.3851 67.1666 26.8733 67.1666 26.8733L60.228 23.1319Z" fill="#664400"/>
<path d="M66.082 100.999H2.35583V78.9626C2.35583 75.6339 5.04849 72.9354 8.36993 72.9354H60.0677C63.3892 72.9354 66.0818 75.6339 66.0818 78.9626L66.082 100.999Z" fill="#C97E67"/>
<path d="M66.082 91.068H2.35565V101H66.082V91.068Z" fill="#784738"/>
<path d="M7.46448 97.4404C6.68885 97.4404 6.06024 96.8104 6.06024 96.0331V80.7801C6.06024 80.0028 6.68885 79.3728 7.46448 79.3728C8.24011 79.3728 8.86872 80.0028 8.86872 80.7801V96.0331C8.86872 96.8104 8.23993 97.4404 7.46448 97.4404Z" fill="#784738"/>
<path d="M49.197 85.6811H19.9628C18.3868 85.6811 17.0977 84.389 17.0977 82.8097V82.2252C17.0977 80.6458 18.387 79.3538 19.9628 79.3538H49.1972C50.7732 79.3538 52.0624 80.6459 52.0624 82.2252V82.8097C52.0624 84.389 50.7729 85.6811 49.197 85.6811Z" fill="#FFF5CC"/>
</svg>
