<svg width="203" height="69" viewBox="0 0 203 69" fill="none" xmlns="http://www.w3.org/2000/svg">
<g clip-path="url(#clip0_136_366)">
<path d="M17.28 2.48C20.992 2.48 24.128 3.14133 26.688 4.464C29.248 5.78666 30.528 7.94133 30.528 10.928C30.528 12.8053 29.9307 14.256 28.736 15.28C27.5413 16.304 25.984 16.816 24.064 16.816C22.7413 16.816 21.632 16.5813 20.736 16.112C21.0347 15.0453 21.184 13.808 21.184 12.4C21.184 10.6933 20.8 9.37067 20.032 8.432C19.3067 7.45067 18.1333 6.96 16.512 6.96C15.104 6.96 13.9733 7.344 13.12 8.112C12.3093 8.88 11.904 9.968 11.904 11.376C11.904 12.8267 12.288 14.128 13.056 15.28C13.824 16.3893 14.7627 17.3493 15.872 18.16C17.024 18.9707 18.5813 19.952 20.544 21.104C22.848 22.4693 24.704 23.6853 26.112 24.752C27.5627 25.8187 28.7787 27.1627 29.76 28.784C30.784 30.4053 31.296 32.3467 31.296 34.608C31.296 38.832 29.8027 42.032 26.816 44.208C23.8293 46.3413 19.9467 47.408 15.168 47.408C11.2 47.408 7.85067 46.704 5.12 45.296C2.432 43.888 1.088 41.6053 1.088 38.448C1.088 36.5707 1.68533 35.056 2.88 33.904C4.11733 32.752 5.67467 32.176 7.552 32.176C8.96 32.176 10.0693 32.4107 10.88 32.88C10.5813 34.2027 10.432 35.3333 10.432 36.272C10.432 40.7093 12.2667 42.928 15.936 42.928C17.6427 42.928 19.0293 42.4587 20.096 41.52C21.1627 40.5387 21.696 39.2373 21.696 37.616C21.696 36.1653 21.312 34.8853 20.544 33.776C19.776 32.624 18.816 31.6427 17.664 30.832C16.512 29.9787 14.976 28.976 13.056 27.824C10.752 26.4587 8.87467 25.2427 7.424 24.176C6.016 23.1093 4.8 21.7653 3.776 20.144C2.79467 18.5227 2.304 16.6027 2.304 14.384C2.304 11.8667 2.98667 9.712 4.352 7.92C5.71733 6.128 7.53067 4.784 9.792 3.888C12.096 2.94933 14.592 2.48 17.28 2.48ZM52.4492 2.48C58.7639 2.48 63.3932 4.4 66.3372 8.24C69.2812 12.08 70.7532 17.4347 70.7532 24.304C70.7532 31.344 69.2599 36.9547 66.2732 41.136C63.3292 45.3173 58.7212 47.408 52.4492 47.408C46.2625 47.408 41.6545 45.4027 38.6252 41.392C35.6385 37.3813 34.1452 31.9627 34.1452 25.136C34.1452 18.1813 35.6172 12.6773 38.5612 8.624C41.5479 4.528 46.1772 2.48 52.4492 2.48ZM52.4492 42.8C55.3079 42.8 57.1639 41.1147 58.0172 37.744C58.8705 34.3307 59.2972 29.9787 59.2972 24.688C59.2972 19.6107 58.8492 15.408 57.9532 12.08C57.0999 8.752 55.2652 7.088 52.4492 7.088C49.6332 7.088 47.7772 8.77333 46.8812 12.144C45.9852 15.472 45.5372 19.6533 45.5372 24.688C45.5372 29.936 45.9639 34.2667 46.8172 37.68C47.7132 41.0933 49.5905 42.8 52.4492 42.8ZM75.6044 3.76H86.2284V40.752H98.9004L98.3884 46H75.6044V3.76ZM122.942 3.76L133.758 46H122.942L120.51 35.568H108.67L106.302 46H98.5581L110.206 3.76H122.942ZM109.886 30.512H119.358L114.558 10.032L109.886 30.512ZM158.635 46L143.595 15.856V46H136.939V3.76H147.819L162.859 33.904V3.76H169.451V46H158.635ZM202.026 3.76L201.578 8.816H192.426V46H181.802V8.816H172.33V3.76H202.026Z" fill="white"/>
<path d="M104.76 63.008L104.632 56.976H103.4L103.352 56.416C103.459 56.3413 103.768 56.2027 104.28 56L105.592 53.952C105.805 53.9733 105.971 54.0267 106.088 54.112L106.072 55.872C106.872 55.872 107.528 55.9253 108.04 56.032C108.04 56.32 107.949 56.6347 107.768 56.976H106.04C106.019 58.256 105.997 60.1973 105.976 62.8C106.573 62.832 107.171 62.9387 107.768 63.12L107.752 63.68C107.603 63.776 107.219 63.888 106.6 64.016C105.992 64.144 105.491 64.208 105.096 64.208C105.043 64.1227 104.973 63.9413 104.888 63.664C104.803 63.376 104.76 63.1573 104.76 63.008ZM111.623 54.352C111.346 54.416 111.074 54.448 110.807 54.448C110.551 54.448 110.295 54.432 110.039 54.4C109.975 54.1013 109.943 53.8027 109.943 53.504C109.943 53.1947 109.954 52.9653 109.975 52.816C110.21 52.7627 110.455 52.736 110.711 52.736C110.978 52.736 111.261 52.7467 111.559 52.768C111.623 53.0453 111.655 53.3173 111.655 53.584C111.655 53.84 111.645 54.096 111.623 54.352ZM108.711 56.032C109.618 55.872 110.322 55.792 110.823 55.792C111.325 55.792 111.645 55.8027 111.783 55.824C111.783 56.08 111.751 56.3627 111.687 56.672C111.623 56.9813 111.586 57.1307 111.575 57.12L111.431 62.912L112.775 63.04C112.775 63.3387 112.685 63.6587 112.503 64H108.823L108.775 63.44C109.266 63.2693 109.746 63.1413 110.215 63.056C110.151 60.3893 110.098 58.3893 110.055 57.056C109.437 57.056 108.967 56.992 108.647 56.864L108.711 56.032ZM121.03 57.472C121.072 57.8133 121.094 58.208 121.094 58.656C121.094 59.104 121.051 60.5227 120.966 62.912L122.31 63.04C122.31 63.3387 122.219 63.6587 122.038 64H118.358L118.31 63.44C118.8 63.2693 119.28 63.1413 119.75 63.056C119.686 60.2187 119.627 58.64 119.574 58.32C119.531 58 119.456 57.7333 119.35 57.52C119.243 57.296 119.078 57.1413 118.854 57.056C118.63 56.9707 118.288 56.928 117.83 56.928C117.382 56.928 116.79 57.0987 116.054 57.44C115.99 59.872 115.947 61.696 115.926 62.912L117.27 63.04C117.27 63.3387 117.179 63.6587 116.998 64H113.318L113.27 63.44C113.76 63.2693 114.24 63.1413 114.71 63.056C114.699 62.288 114.672 61.2053 114.63 59.808C114.587 58.4 114.56 57.4773 114.55 57.04C113.963 57.008 113.494 56.944 113.142 56.848L113.206 56.016C113.782 55.856 114.619 55.776 115.718 55.776C115.867 56.0427 115.963 56.32 116.006 56.608C116.475 56.3627 116.939 56.1493 117.398 55.968C117.856 55.776 118.144 55.68 118.262 55.68C119.446 55.68 120.272 56.0427 120.742 56.768C121.232 56.5013 121.739 56.256 122.262 56.032C122.795 55.7973 123.115 55.68 123.222 55.68C124.192 55.68 124.918 55.92 125.398 56.4C125.888 56.8693 126.134 57.6427 126.134 58.72C126.134 59.04 126.091 60.4373 126.006 62.912L127.35 63.04C127.35 63.3387 127.259 63.6587 127.078 64H123.398L123.35 63.44C123.84 63.2693 124.32 63.1413 124.79 63.056C124.747 61.3707 124.71 60.096 124.678 59.232C124.646 58.368 124.523 57.7707 124.31 57.44C124.096 57.0987 123.67 56.928 123.03 56.928C122.39 56.928 121.723 57.1093 121.03 57.472ZM131.751 63.104C132.22 63.104 132.956 62.88 133.959 62.432C134.162 62.7093 134.268 62.9547 134.279 63.168C133.735 63.488 133.202 63.7387 132.679 63.92C132.156 64.1013 131.783 64.192 131.559 64.192C130.322 64.192 129.378 63.824 128.727 63.088C128.076 62.3413 127.751 61.3013 127.751 59.968C127.751 58.6347 128.066 57.5893 128.695 56.832C129.335 56.064 130.29 55.68 131.559 55.68C132.54 55.68 133.287 56.032 133.799 56.736C134.322 57.44 134.583 58.384 134.583 59.568C134.498 59.7173 134.428 59.8187 134.375 59.872L129.223 59.792C129.234 60.8693 129.42 61.6907 129.783 62.256C130.156 62.8213 130.812 63.104 131.751 63.104ZM133.127 58.88C133.127 58.176 132.999 57.632 132.743 57.248C132.487 56.8533 132.06 56.656 131.463 56.656C130.866 56.656 130.332 56.768 129.863 56.992C129.543 57.632 129.34 58.288 129.255 58.96C130.098 58.9493 131.388 58.9227 133.127 58.88ZM142.12 54.352C141.843 54.416 141.571 54.448 141.304 54.448C141.048 54.448 140.792 54.432 140.536 54.4C140.472 54.1013 140.44 53.8027 140.44 53.504C140.44 53.1947 140.451 52.9653 140.472 52.816C140.707 52.7627 140.952 52.736 141.208 52.736C141.475 52.736 141.757 52.7467 142.056 52.768C142.12 53.0453 142.152 53.3173 142.152 53.584C142.152 53.84 142.141 54.096 142.12 54.352ZM139.208 56.032C140.115 55.872 140.819 55.792 141.32 55.792C141.821 55.792 142.141 55.8027 142.28 55.824C142.28 56.08 142.248 56.3627 142.184 56.672C142.12 56.9813 142.083 57.1307 142.072 57.12L141.928 62.912L143.272 63.04C143.272 63.3387 143.181 63.6587 143 64H139.32L139.272 63.44C139.763 63.2693 140.243 63.1413 140.712 63.056C140.648 60.3893 140.595 58.3893 140.552 57.056C139.933 57.056 139.464 56.992 139.144 56.864L139.208 56.032ZM145.095 62.976C145.468 63.136 145.921 63.216 146.455 63.216C146.999 63.216 147.425 63.1147 147.735 62.912C148.044 62.7093 148.199 62.432 148.199 62.08C148.199 61.728 148.055 61.4347 147.767 61.2C147.479 60.9653 147.127 60.7573 146.711 60.576C146.295 60.3947 145.879 60.2027 145.463 60C145.047 59.7973 144.695 59.5307 144.407 59.2C144.119 58.8693 143.975 58.4853 143.975 58.048C143.975 57.312 144.22 56.736 144.711 56.32C145.201 55.8933 145.879 55.68 146.743 55.68C147.617 55.68 148.439 55.8773 149.207 56.272C149.217 56.3787 149.223 56.6667 149.223 57.136C149.223 57.5947 149.175 57.9893 149.079 58.32C148.823 58.4053 148.519 58.448 148.167 58.448L147.639 56.816C147.404 56.6987 147.084 56.64 146.679 56.64C146.284 56.64 145.969 56.7467 145.735 56.96C145.5 57.1627 145.383 57.424 145.383 57.744C145.383 58.0533 145.527 58.3253 145.815 58.56C146.113 58.7947 146.471 59.008 146.887 59.2C147.303 59.3813 147.719 59.5787 148.135 59.792C148.551 59.9947 148.903 60.2667 149.191 60.608C149.489 60.9387 149.639 61.3227 149.639 61.76C149.639 62.528 149.34 63.1307 148.743 63.568C148.156 63.9947 147.431 64.208 146.567 64.208C146.097 64.208 145.596 64.1333 145.063 63.984C144.529 63.824 144.081 63.6213 143.719 63.376C143.719 62.6613 143.783 62.0267 143.911 61.472C144.156 61.4293 144.487 61.408 144.903 61.408L145.095 62.976ZM155.551 63.008L155.423 56.976H154.191L154.143 56.416C154.249 56.3413 154.559 56.2027 155.071 56L156.383 53.952C156.596 53.9733 156.761 54.0267 156.879 54.112L156.863 55.872C157.663 55.872 158.319 55.9253 158.831 56.032C158.831 56.32 158.74 56.6347 158.559 56.976H156.831C156.809 58.256 156.788 60.1973 156.767 62.8C157.364 62.832 157.961 62.9387 158.559 63.12L158.543 63.68C158.393 63.776 158.009 63.888 157.391 64.016C156.783 64.144 156.281 64.208 155.887 64.208C155.833 64.1227 155.764 63.9413 155.679 63.664C155.593 63.376 155.551 63.1573 155.551 63.008ZM162.414 54.352C162.136 54.416 161.864 54.448 161.598 54.448C161.342 54.448 161.086 54.432 160.83 54.4C160.766 54.1013 160.734 53.8027 160.734 53.504C160.734 53.1947 160.744 52.9653 160.766 52.816C161 52.7627 161.246 52.736 161.502 52.736C161.768 52.736 162.051 52.7467 162.35 52.768C162.414 53.0453 162.446 53.3173 162.446 53.584C162.446 53.84 162.435 54.096 162.414 54.352ZM159.502 56.032C160.408 55.872 161.112 55.792 161.614 55.792C162.115 55.792 162.435 55.8027 162.574 55.824C162.574 56.08 162.542 56.3627 162.478 56.672C162.414 56.9813 162.376 57.1307 162.366 57.12L162.222 62.912L163.566 63.04C163.566 63.3387 163.475 63.6587 163.294 64H159.614L159.566 63.44C160.056 63.2693 160.536 63.1413 161.006 63.056C160.942 60.3893 160.888 58.3893 160.846 57.056C160.227 57.056 159.758 56.992 159.438 56.864L159.502 56.032ZM167.868 64.192C166.588 64.192 165.634 63.8347 165.004 63.12C164.375 62.3947 164.06 61.3653 164.06 60.032C164.06 57.1307 165.351 55.68 167.932 55.68C168.348 55.68 168.78 55.744 169.228 55.872C169.676 55.9893 170.028 56.1227 170.284 56.272C170.252 57.264 170.151 57.968 169.98 58.384C169.788 58.4373 169.634 58.464 169.516 58.464H169.244C169.191 58.464 169.127 58.4587 169.052 58.448L168.652 56.688C168.3 56.656 168.098 56.64 168.044 56.64C167.276 56.64 166.663 56.8747 166.204 57.344C165.756 57.8133 165.532 58.6027 165.532 59.712C165.532 60.8213 165.703 61.664 166.044 62.24C166.396 62.816 167.068 63.104 168.06 63.104C168.53 63.104 169.266 62.88 170.268 62.432C170.471 62.7093 170.578 62.9547 170.588 63.168C170.044 63.488 169.511 63.7387 168.988 63.92C168.466 64.1013 168.092 64.192 167.868 64.192ZM173.372 52.016C173.703 52.016 173.937 52.0267 174.076 52.048C174.076 52.3787 174.007 52.8053 173.868 53.328C173.804 56.144 173.772 58.272 173.772 59.712L176.348 56.96L175.068 56.832C175.068 56.5333 175.159 56.2133 175.34 55.872H179.404L179.452 56.576C179.207 56.672 178.759 56.7947 178.108 56.944L175.916 58.928L178.62 62.912L179.964 63.04C179.964 63.3387 179.873 63.6587 179.692 64H177.5L175.004 59.744L173.756 60.88C173.735 61.776 173.724 62.4533 173.724 62.912L175.068 63.04C175.068 63.3387 174.977 63.6587 174.796 64H171.116L171.068 63.44C171.559 63.2693 172.039 63.1413 172.508 63.056C172.444 58.7467 172.391 55.488 172.348 53.28C171.761 53.248 171.292 53.184 170.94 53.088L171.004 52.256C171.548 52.096 172.337 52.016 173.372 52.016ZM183.15 54.352C182.872 54.416 182.6 54.448 182.334 54.448C182.078 54.448 181.822 54.432 181.566 54.4C181.502 54.1013 181.47 53.8027 181.47 53.504C181.47 53.1947 181.48 52.9653 181.502 52.816C181.736 52.7627 181.982 52.736 182.238 52.736C182.504 52.736 182.787 52.7467 183.086 52.768C183.15 53.0453 183.182 53.3173 183.182 53.584C183.182 53.84 183.171 54.096 183.15 54.352ZM180.238 56.032C181.144 55.872 181.848 55.792 182.35 55.792C182.851 55.792 183.171 55.8027 183.31 55.824C183.31 56.08 183.278 56.3627 183.214 56.672C183.15 56.9813 183.112 57.1307 183.102 57.12L182.958 62.912L184.302 63.04C184.302 63.3387 184.211 63.6587 184.03 64H180.35L180.302 63.44C180.792 63.2693 181.272 63.1413 181.742 63.056C181.678 60.3893 181.624 58.3893 181.582 57.056C180.963 57.056 180.494 56.992 180.174 56.864L180.238 56.032ZM189.788 55.68C190.812 55.68 191.554 55.936 192.012 56.448C192.471 56.9493 192.7 57.7173 192.7 58.752C192.7 59.0507 192.658 60.4373 192.572 62.912L193.916 63.04C193.916 63.3387 193.826 63.6587 193.644 64H189.964L189.916 63.44C190.407 63.2693 190.887 63.1413 191.356 63.056C191.292 60.2613 191.234 58.7093 191.18 58.4C191.138 58.08 191.063 57.8027 190.956 57.568C190.85 57.3333 190.69 57.168 190.476 57.072C190.263 56.976 189.98 56.928 189.628 56.928C188.924 56.928 188.242 57.0987 187.58 57.44C187.516 59.872 187.474 61.696 187.452 62.912L188.796 63.04C188.796 63.3387 188.706 63.6587 188.524 64H184.844L184.796 63.44C185.287 63.2693 185.767 63.1413 186.236 63.056C186.172 60.3467 186.119 58.3413 186.076 57.04C185.49 57.008 185.02 56.944 184.668 56.848L184.732 56.016C185.308 55.856 186.146 55.776 187.244 55.776C187.372 55.968 187.468 56.2453 187.532 56.608C187.991 56.3627 188.45 56.1493 188.908 55.968C189.378 55.776 189.671 55.68 189.788 55.68ZM198.484 63.024L199.908 62.992C201.38 62.992 202.116 63.6 202.116 64.816C202.116 65.3813 201.871 65.904 201.38 66.384C200.9 66.8747 200.324 67.2427 199.652 67.488C198.98 67.7333 198.351 67.856 197.764 67.856C197.188 67.856 196.65 67.7707 196.148 67.6C195.647 67.44 195.22 67.1733 194.868 66.8C194.516 66.4267 194.34 65.9947 194.34 65.504C194.34 65.3867 194.527 65.0773 194.9 64.576C195.284 64.0853 195.535 63.7973 195.652 63.712C195.556 63.648 195.37 63.4667 195.092 63.168C194.815 62.8587 194.66 62.6453 194.628 62.528C194.895 62.0373 195.316 61.5573 195.892 61.088C195.039 60.576 194.612 59.7333 194.612 58.56C194.612 57.6213 194.911 56.9067 195.508 56.416C196.106 55.9253 196.852 55.68 197.748 55.68C198.644 55.68 199.338 55.824 199.828 56.112C200.682 55.9413 201.519 55.856 202.34 55.856C202.543 55.856 202.644 55.9787 202.644 56.224C202.644 56.6507 202.564 56.944 202.404 57.104L200.564 56.8C200.948 57.2907 201.14 57.8773 201.14 58.56C201.14 59.6267 200.826 60.3947 200.196 60.864C199.567 61.3227 198.794 61.552 197.876 61.552C197.588 61.552 197.247 61.5147 196.852 61.44C196.692 61.7707 196.49 62.128 196.244 62.512C196.436 62.8533 197.183 63.024 198.484 63.024ZM200.516 65.968C200.623 65.6693 200.676 65.36 200.676 65.04C200.676 64.7307 200.554 64.48 200.308 64.288C200.063 64.096 199.748 64 199.364 64C197.839 64 196.906 63.984 196.564 63.952C196.276 64.4107 196.074 64.7947 195.956 65.104C195.85 65.424 195.796 65.6053 195.796 65.648C195.796 66.064 195.994 66.3733 196.388 66.576C196.783 66.7787 197.236 66.88 197.748 66.88C198.271 66.88 198.794 66.7947 199.316 66.624C199.85 66.4533 200.25 66.2347 200.516 65.968ZM199.7 58.624C199.7 57.3013 199.092 56.64 197.876 56.64C196.66 56.64 196.052 57.28 196.052 58.56C196.052 59.2107 196.212 59.712 196.532 60.064C196.852 60.416 197.316 60.592 197.924 60.592C199.108 60.592 199.7 59.936 199.7 58.624Z" fill="white"/>
</g>
<defs>
<clipPath id="clip0_136_366">
<rect width="203" height="69" fill="white"/>
</clipPath>
</defs>
</svg>
