<svg width="202" height="46" viewBox="0 0 202 46" fill="none" xmlns="http://www.w3.org/2000/svg">
<path d="M16.28 0.48C19.992 0.48 23.128 1.14133 25.688 2.464C28.248 3.78666 29.528 5.94133 29.528 8.928C29.528 10.8053 28.9307 12.256 27.736 13.28C26.5413 14.304 24.984 14.816 23.064 14.816C21.7413 14.816 20.632 14.5813 19.736 14.112C20.0347 13.0453 20.184 11.808 20.184 10.4C20.184 8.69333 19.8 7.37067 19.032 6.432C18.3067 5.45067 17.1333 4.96 15.512 4.96C14.104 4.96 12.9733 5.344 12.12 6.112C11.3093 6.88 10.904 7.968 10.904 9.376C10.904 10.8267 11.288 12.128 12.056 13.28C12.824 14.3893 13.7627 15.3493 14.872 16.16C16.024 16.9707 17.5813 17.952 19.544 19.104C21.848 20.4693 23.704 21.6853 25.112 22.752C26.5627 23.8187 27.7787 25.1627 28.76 26.784C29.784 28.4053 30.296 30.3467 30.296 32.608C30.296 36.832 28.8027 40.032 25.816 42.208C22.8293 44.3413 18.9467 45.408 14.168 45.408C10.2 45.408 6.85067 44.704 4.12 43.296C1.432 41.888 0.0880001 39.6053 0.0880001 36.448C0.0880001 34.5707 0.685333 33.056 1.88 31.904C3.11733 30.752 4.67467 30.176 6.552 30.176C7.96 30.176 9.06933 30.4107 9.88 30.88C9.58133 32.2027 9.432 33.3333 9.432 34.272C9.432 38.7093 11.2667 40.928 14.936 40.928C16.6427 40.928 18.0293 40.4587 19.096 39.52C20.1627 38.5387 20.696 37.2373 20.696 35.616C20.696 34.1653 20.312 32.8853 19.544 31.776C18.776 30.624 17.816 29.6427 16.664 28.832C15.512 27.9787 13.976 26.976 12.056 25.824C9.752 24.4587 7.87467 23.2427 6.424 22.176C5.016 21.1093 3.8 19.7653 2.776 18.144C1.79467 16.5227 1.304 14.6027 1.304 12.384C1.304 9.86666 1.98667 7.712 3.352 5.92C4.71733 4.128 6.53067 2.784 8.792 1.888C11.096 0.949332 13.592 0.48 16.28 0.48ZM51.4492 0.48C57.7639 0.48 62.3932 2.4 65.3372 6.24C68.2812 10.08 69.7532 15.4347 69.7532 22.304C69.7532 29.344 68.2599 34.9547 65.2732 39.136C62.3292 43.3173 57.7212 45.408 51.4492 45.408C45.2625 45.408 40.6545 43.4027 37.6252 39.392C34.6385 35.3813 33.1452 29.9627 33.1452 23.136C33.1452 16.1813 34.6172 10.6773 37.5612 6.624C40.5479 2.528 45.1772 0.48 51.4492 0.48ZM51.4492 40.8C54.3079 40.8 56.1639 39.1147 57.0172 35.744C57.8705 32.3307 58.2972 27.9787 58.2972 22.688C58.2972 17.6107 57.8492 13.408 56.9532 10.08C56.0999 6.752 54.2652 5.088 51.4492 5.088C48.6332 5.088 46.7772 6.77333 45.8812 10.144C44.9852 13.472 44.5372 17.6533 44.5372 22.688C44.5372 27.936 44.9639 32.2667 45.8172 35.68C46.7132 39.0933 48.5905 40.8 51.4492 40.8ZM74.6044 1.76H85.2284V38.752H97.9004L97.3884 44H74.6044V1.76ZM121.942 1.76L132.758 44H121.942L119.51 33.568H107.67L105.302 44H97.5581L109.206 1.76H121.942ZM108.886 28.512H118.358L113.558 8.032L108.886 28.512ZM157.635 44L142.595 13.856V44H135.939V1.76H146.819L161.859 31.904V1.76H168.451V44H157.635ZM201.026 1.76L200.578 6.816H191.426V44H180.802V6.816H171.33V1.76H201.026Z" fill="white"/>
</svg>
