<svg width="50" height="50" viewBox="0 0 50 50" fill="none" xmlns="http://www.w3.org/2000/svg">
<path d="M22.6276 41.8019C15.7748 41.7895 12.1865 41.6214 9.8933 39.328C7.41844 36.8533 7.41844 32.87 7.41844 24.9038C7.41844 16.9375 7.41844 12.9544 9.8933 10.4796C12.368 8.00479 16.3511 8.00479 24.3175 8.00479C32.2837 8.00479 36.2669 8.00479 38.7417 10.4796C41.035 12.7729 41.2032 16.3612 41.2155 23.2139" stroke="white" stroke-width="2.53486" stroke-linecap="round"/>
<path d="M15.8678 16.4543L24.3173 24.9038M24.3173 24.9038H17.9802M24.3173 24.9038L24.3173 18.5667" stroke="white" stroke-width="2.53486" stroke-linecap="round" stroke-linejoin="round"/>
<path d="M41.2163 35.0432C41.2163 31.8568 41.2163 30.2635 40.2264 29.2736C39.2365 28.2836 37.6432 28.2836 34.4567 28.2836C31.2702 28.2836 29.677 28.2836 28.687 29.2736C27.6971 30.2635 27.6971 31.8568 27.6971 35.0432C27.6971 38.2297 27.6971 39.823 28.687 40.8129C29.677 41.8029 31.2702 41.8029 34.4567 41.8029C37.6432 41.8029 39.2365 41.8029 40.2264 40.8129C41.2163 39.823 41.2163 38.2297 41.2163 35.0432Z" stroke="white" stroke-width="2.53486"/>
</svg>
