<svg width="152" height="150" viewBox="0 0 152 150" fill="none" xmlns="http://www.w3.org/2000/svg">
<circle cx="2" cy="150" r="150" fill="#2D5128" fill-opacity="0.5"/>
<path d="M79.5 64.251C77.4 64.251 75.6978 62.5486 75.6978 60.4488V39.5097C75.6978 37.4098 77.4002 35.7075 79.5 35.7075C81.5999 35.7075 83.3022 37.41 83.3022 39.5097V60.4486C83.3022 62.549 81.5999 64.251 79.5 64.251Z" fill="#84D993"/>
<path d="M79.5 35.7077V64.2512C81.6 64.2512 83.3022 62.5487 83.3022 60.449V39.5101C83.3022 37.4102 81.6 35.7077 79.5 35.7077Z" fill="#50BF94"/>
<path d="M100.446 12C91.6348 12 83.8856 16.6295 79.4996 23.583C75.1134 16.6295 67.3642 12 58.5531 12C56.4531 12 54.7509 13.7025 54.7509 15.8022V25.4862C54.7509 39.1325 65.8529 50.2345 79.4992 50.2345H79.4996H79.5C93.1463 50.2345 104.248 39.1325 104.248 25.4862V15.8022C104.248 13.7025 102.546 12 100.446 12Z" fill="#B9F291"/>
<path d="M114.697 106.812C106.081 106.812 98.8607 100.724 97.1109 92.6246H33.0432C30.9432 92.6246 29.241 90.9221 29.241 88.8224V60.4492C29.241 58.3492 30.9435 56.647 33.0432 56.647H125.957C128.057 56.647 129.759 58.3495 129.759 60.4492V106.812H114.697Z" fill="#F6D86E"/>
<path d="M125.957 56.647H79.5V92.6246H97.1112C98.8607 100.725 106.081 106.812 114.697 106.812H129.759V60.4492C129.759 58.3492 128.057 56.647 125.957 56.647Z" fill="#FBB071"/>
<path d="M125.957 121H33.0432C30.9432 121 29.241 119.298 29.241 117.198V85.0198H100.509C102.61 85.0198 104.311 86.7225 104.312 88.8231C104.312 94.5492 108.971 99.2077 114.697 99.2077H129.759V117.198C129.759 119.298 128.057 121 125.957 121Z" fill="#C97E67"/>
<path d="M100.446 12C91.635 12 83.8862 16.6293 79.5 23.5821V50.2349C93.1463 50.2349 104.248 39.1329 104.248 25.4866V15.8022C104.248 13.7025 102.546 12 100.446 12Z" fill="#84D993"/>
<path d="M114.697 99.2077C108.97 99.2077 104.312 94.5494 104.311 88.8231C104.311 86.7227 102.609 85.02 100.509 85.02H79.5V121H125.957C128.057 121 129.759 119.298 129.759 117.198V99.2077H114.697Z" fill="#784738"/>
</svg>
