<svg width="50" height="50" viewBox="0 0 50 50" fill="none" xmlns="http://www.w3.org/2000/svg">
<path d="M38.0369 7.30892C38.6208 7.55077 39.0015 8.12052 39.0015 8.75248V17.5913C39.0015 18.4543 38.3019 19.1538 37.439 19.1538H28.6C27.9681 19.1538 27.3983 18.7731 27.1565 18.1893C26.9148 17.6054 27.0483 16.9333 27.4952 16.4865L30.8348 13.1469C25.3488 10.8523 18.7835 11.9394 14.3198 16.4031C8.42119 22.3017 8.42119 31.865 14.3198 37.7635C20.2183 43.6621 29.7817 43.6621 35.6802 37.7635C39.1098 34.334 40.5463 29.6669 39.9865 25.1952C39.8792 24.339 40.4865 23.5579 41.3427 23.4506C42.199 23.3435 42.98 23.9506 43.0873 24.8069C43.7619 30.1946 42.0304 35.8327 37.89 39.9733C30.771 47.0923 19.229 47.0923 12.11 39.9733C4.99111 32.8544 4.99111 21.3123 12.11 14.1934C17.815 8.48842 26.3573 7.35667 33.1894 10.7922L36.3342 7.64762C36.781 7.20077 37.4529 7.06708 38.0369 7.30892Z" fill="white"/>
</svg>
