<svg width="50" height="50" viewBox="0 0 50 50" fill="none" xmlns="http://www.w3.org/2000/svg">
<path d="M28.6571 7C28.9364 7.00001 29.2085 7.08881 29.4342 7.25362C29.6599 7.41842 29.8275 7.65072 29.913 7.91707L31.3642 12.4337C31.9737 12.7324 32.5569 13.068 33.1136 13.4459L37.7469 12.4469C38.0201 12.3885 38.3047 12.4184 38.5599 12.5324C38.815 12.6464 39.0274 12.8386 39.1665 13.0812L42.8235 19.4214C42.9632 19.6639 43.0223 19.9446 42.9924 20.2229C42.9626 20.5013 42.8452 20.7629 42.6573 20.9701L39.4778 24.4851C39.5241 25.1592 39.5241 25.8356 39.4778 26.5096L42.6573 30.0299C42.8452 30.2371 42.9626 30.4987 42.9924 30.7771C43.0223 31.0554 42.9632 31.3361 42.8235 31.5786L39.1665 37.9214C39.027 38.1636 38.8144 38.3552 38.5593 38.4687C38.3043 38.5822 38.0198 38.6117 37.7469 38.5531L33.1136 37.5541C32.5595 37.9294 31.9737 38.2676 31.3669 38.5663L29.913 43.0829C29.8275 43.3493 29.6599 43.5816 29.4342 43.7464C29.2085 43.9112 28.9364 44 28.6571 44H21.3429C21.0636 44 20.7915 43.9112 20.5658 43.7464C20.3401 43.5816 20.1725 43.3493 20.087 43.0829L18.6384 38.5689C18.0305 38.2712 17.4442 37.9312 16.8838 37.5514L12.2531 38.5531C11.9799 38.6115 11.6953 38.5816 11.4401 38.4676C11.185 38.3536 10.9726 38.1614 10.8335 37.9188L7.17648 31.5786C7.03683 31.3361 6.97768 31.0554 7.00756 30.7771C7.03744 30.4987 7.15479 30.2371 7.34271 30.0299L10.5222 26.5096C10.4761 25.8373 10.4761 25.1627 10.5222 24.4904L7.34271 20.9701C7.15479 20.7629 7.03744 20.5013 7.00756 20.2229C6.97768 19.9446 7.03683 19.6639 7.17648 19.4214L10.8335 13.0786C10.973 12.8364 11.1856 12.6448 11.4407 12.5313C11.6957 12.4178 11.9802 12.3883 12.2531 12.4469L16.8838 13.4486C17.4431 13.0706 18.0289 12.7297 18.6384 12.4311L20.0896 7.91707C20.1748 7.65158 20.3417 7.41989 20.5663 7.25517C20.791 7.09044 21.0619 7.00112 21.3403 7H28.6544H28.6571ZM27.6913 9.64286H22.3087L20.81 14.3128L19.7994 14.807C19.3026 15.0505 18.823 15.3278 18.364 15.6369L17.43 16.2711L12.6383 15.2351L9.94698 19.9077L13.232 23.5496L13.1528 24.6701C13.1149 25.2227 13.1149 25.7773 13.1528 26.3299L13.232 27.4504L9.9417 31.0923L12.6357 35.7649L17.4273 34.7315L18.3614 35.3631C18.8204 35.6722 19.2999 35.9495 19.7967 36.193L20.8073 36.6872L22.3087 41.3571H27.6966L29.2006 36.6846L30.2085 36.193C30.7048 35.9501 31.1835 35.6728 31.6413 35.3631L32.5727 34.7315L37.367 35.7649L40.0583 31.0923L36.7706 27.4504L36.8498 26.3299C36.8878 25.7764 36.8878 25.221 36.8498 24.6675L36.7706 23.5469L40.0609 19.9077L37.367 15.2351L32.5727 16.2659L31.6413 15.6369C31.1836 15.3272 30.7048 15.0499 30.2085 14.807L29.2006 14.3154L27.694 9.64286H27.6913ZM25 17.5714C27.0994 17.5714 29.1128 18.4068 30.5972 19.8937C32.0817 21.3805 32.9157 23.3972 32.9157 25.5C32.9157 27.6028 32.0817 29.6195 30.5972 31.1063C29.1128 32.5932 27.0994 33.4286 25 33.4286C22.9006 33.4286 20.8872 32.5932 19.4028 31.1063C17.9183 29.6195 17.0843 27.6028 17.0843 25.5C17.0843 23.3972 17.9183 21.3805 19.4028 19.8937C20.8872 18.4068 22.9006 17.5714 25 17.5714ZM25 20.2143C23.6004 20.2143 22.2582 20.7712 21.2685 21.7624C20.2788 22.7537 19.7229 24.0981 19.7229 25.5C19.7229 26.9019 20.2788 28.2463 21.2685 29.2376C22.2582 30.2288 23.6004 30.7857 25 30.7857C26.3996 30.7857 27.7418 30.2288 28.7315 29.2376C29.7211 28.2463 30.2771 26.9019 30.2771 25.5C30.2771 24.0981 29.7211 22.7537 28.7315 21.7624C27.7418 20.7712 26.3996 20.2143 25 20.2143Z" fill="white"/>
</svg>
