<svg width="150" height="150" viewBox="0 0 150 150" fill="none" xmlns="http://www.w3.org/2000/svg">
<circle cx="150" cy="150" r="150" fill="#2D5128" fill-opacity="0.5"/>
<g clip-path="url(#clip0_50_9568)">
<path d="M107.261 107.967C107.261 113.202 103.017 117.446 97.7825 117.446H12.4783C7.24355 117.446 3 113.202 3 107.967V41.545H107.261V107.967Z" fill="#B28D5B"/>
<path d="M3 41.545H19.5869V117.446H12.4783C7.24355 117.446 3 113.198 3 107.958V41.545ZM107.261 74.7517H71.7175C66.4829 74.7517 62.2392 78.9954 62.2392 84.23V84.2487C62.2392 89.4833 66.4827 93.727 71.7175 93.727H107.261C109.879 93.727 112 91.6054 112 88.9879V79.4908C112 76.8733 109.878 74.7517 107.261 74.7517Z" fill="#99774F"/>
<path d="M76.4564 84.2391C76.4564 86.2039 74.8651 87.7969 72.902 87.7969C70.9389 87.7969 69.3476 86.2041 69.3476 84.2391C69.3476 82.2743 70.9389 80.6813 72.902 80.6813C74.8651 80.6813 76.4564 82.2741 76.4564 84.2391Z" fill="#FFE77C"/>
<path d="M100.152 53.4045H14.8478C8.3046 53.4045 3 48.0999 3 41.5564V41.533C3 34.9896 8.3046 29.6852 14.8478 29.6852H100.152C104.078 29.6852 107.261 32.8677 107.261 36.7939V46.2956C107.261 50.2217 104.078 53.4045 100.152 53.4045Z" fill="#CEA05D"/>
<path d="M68.3023 19.0991L76.4564 41.545H21.9564L60.6048 16.5126C63.405 14.699 67.1627 15.9617 68.3023 19.0991Z" fill="#84D88B"/>
<path d="M87.4786 18.9928L95.6713 41.545H40.913L79.7443 16.3941C82.5576 14.5717 86.3332 15.8403 87.4786 18.9928Z" fill="#91F18B"/>
<path d="M107.261 39.7658V43.3236H17.2175C16.236 43.3236 15.4402 42.5272 15.4402 41.5447C15.4402 40.5622 16.236 39.7658 17.2175 39.7658H107.261Z" fill="#99774F"/>
</g>
<defs>
<clipPath id="clip0_50_9568">
<rect width="109" height="109" fill="white" transform="translate(3 12)"/>
</clipPath>
</defs>
</svg>
